<svg width="200" height="160" viewBox="0 0 200 160" fill="none" xmlns="http://www.w3.org/2000/svg">
<path fill-rule="evenodd" clip-rule="evenodd" d="M101.562 61.25C101.977 61.25 102.374 61.4146 102.667 61.7076C102.96 62.0007 103.125 62.3981 103.125 62.8125V97.1875C103.125 97.6019 102.96 97.9993 102.667 98.2924C102.374 98.5854 101.977 98.75 101.562 98.75C101.148 98.75 100.751 98.5854 100.458 98.2924C100.165 97.9993 100 97.6019 100 97.1875V62.8125C100 62.3981 100.165 62.0007 100.458 61.7076C100.751 61.4146 101.148 61.25 101.562 61.25V61.25ZM95.3125 67.5C95.7269 67.5 96.1243 67.6646 96.4174 67.9576C96.7104 68.2507 96.875 68.6481 96.875 69.0625V90.9375C96.875 91.3519 96.7104 91.7493 96.4174 92.0424C96.1243 92.3354 95.7269 92.5 95.3125 92.5C94.8981 92.5 94.5007 92.3354 94.2076 92.0424C93.9146 91.7493 93.75 91.3519 93.75 90.9375V69.0625C93.75 68.6481 93.9146 68.2507 94.2076 67.9576C94.5007 67.6646 94.8981 67.5 95.3125 67.5V67.5ZM107.812 67.5C108.227 67.5 108.624 67.6646 108.917 67.9576C109.21 68.2507 109.375 68.6481 109.375 69.0625V90.9375C109.375 91.3519 109.21 91.7493 108.917 92.0424C108.624 92.3354 108.227 92.5 107.812 92.5C107.398 92.5 107.001 92.3354 106.708 92.0424C106.415 91.7493 106.25 91.3519 106.25 90.9375V69.0625C106.25 68.6481 106.415 68.2507 106.708 67.9576C107.001 67.6646 107.398 67.5 107.812 67.5ZM89.0625 72.1875C89.4769 72.1875 89.8743 72.3521 90.1674 72.6451C90.4604 72.9382 90.625 73.3356 90.625 73.75V86.25C90.625 86.6644 90.4604 87.0618 90.1674 87.3549C89.8743 87.6479 89.4769 87.8125 89.0625 87.8125C88.6481 87.8125 88.2507 87.6479 87.9576 87.3549C87.6646 87.0618 87.5 86.6644 87.5 86.25V73.75C87.5 73.3356 87.6646 72.9382 87.9576 72.6451C88.2507 72.3521 88.6481 72.1875 89.0625 72.1875V72.1875ZM114.062 72.1875C114.477 72.1875 114.874 72.3521 115.167 72.6451C115.46 72.9382 115.625 73.3356 115.625 73.75V86.25C115.625 86.6644 115.46 87.0618 115.167 87.3549C114.874 87.6479 114.477 87.8125 114.062 87.8125C113.648 87.8125 113.251 87.6479 112.958 87.3549C112.665 87.0618 112.5 86.6644 112.5 86.25V73.75C112.5 73.3356 112.665 72.9382 112.958 72.6451C113.251 72.3521 113.648 72.1875 114.062 72.1875ZM82.8125 75.3125C83.2269 75.3125 83.6243 75.4771 83.9174 75.7701C84.2104 76.0632 84.375 76.4606 84.375 76.875V83.125C84.375 83.5394 84.2104 83.9368 83.9174 84.2299C83.6243 84.5229 83.2269 84.6875 82.8125 84.6875C82.3981 84.6875 82.0007 84.5229 81.7076 84.2299C81.4146 83.9368 81.25 83.5394 81.25 83.125V76.875C81.25 76.4606 81.4146 76.0632 81.7076 75.7701C82.0007 75.4771 82.3981 75.3125 82.8125 75.3125ZM120.312 75.3125C120.727 75.3125 121.124 75.4771 121.417 75.7701C121.71 76.0632 121.875 76.4606 121.875 76.875V83.125C121.875 83.5394 121.71 83.9368 121.417 84.2299C121.124 84.5229 120.727 84.6875 120.312 84.6875C119.898 84.6875 119.501 84.5229 119.208 84.2299C118.915 83.9368 118.75 83.5394 118.75 83.125V76.875C118.75 76.4606 118.915 76.0632 119.208 75.7701C119.501 75.4771 119.898 75.3125 120.312 75.3125Z" fill="#439CEF"/>
<path d="M157.594 69.3555L149.691 89.375H154.101L155.624 85.5176H164.377L165.899 89.375H170.309L162.407 69.3555H157.594ZM157.243 81.416L160 74.4304L162.758 81.416H157.243Z" fill="#439CEF"/>
<path d="M172.5 60.4688H147.5V56.5625H136.562V67.5H140.469V92.5H136.562V103.438H147.5V99.5312H172.5V103.438H183.438V92.5H179.531V67.5H183.438V56.5625H172.5V60.4688ZM139.688 64.375V59.6875H144.375V64.375H139.688ZM144.375 100.312H139.688V95.625H144.375V100.312ZM172.5 96.4062H147.5V92.5H143.594V67.5H147.5V63.5938H172.5V67.5H176.406V92.5H172.5V96.4062ZM180.312 95.625V100.312H175.625V95.625H180.312ZM175.625 59.6875H180.312V64.375H175.625V59.6875Z" fill="#439CEF"/>
<path d="M54.2708 76.6458L56.4792 74.4375C58.1042 72.8125 58.1042 70.1667 56.4792 68.5417L53.5417 65.6042C51.9167 63.9792 49.2708 63.9792 47.6458 65.6042L45.4375 67.8125L54.2708 76.6458ZM42.4792 70.75L23.3333 89.9167V98.75H32.1667L51.3125 79.6042L42.4792 70.75V70.75ZM54.5833 91.4583C54.5833 96.0208 49.2917 98.75 44.1667 98.75C43.0208 98.75 42.0833 97.8125 42.0833 96.6667C42.0833 95.5208 43.0208 94.5833 44.1667 94.5833C47.375 94.5833 50.4167 93.0625 50.4167 91.4583C50.4167 90.4792 49.4167 89.6458 47.8542 88.9583L50.9375 85.875C53.1667 87.1875 54.5833 88.9375 54.5833 91.4583ZM24.5417 82.8125C22.5208 81.6458 21.25 80.125 21.25 77.9167C21.25 74.1667 25.1875 72.4375 28.6667 70.9167C30.8125 69.9583 33.75 68.6667 33.75 67.5C33.75 66.6458 32.125 65.4167 29.5833 65.4167C26.9583 65.4167 25.8333 66.6875 25.7708 66.75C25.0417 67.6042 23.7292 67.7083 22.8542 67C22.4364 66.6569 22.1697 66.1637 22.1113 65.6263C22.0529 65.0888 22.2074 64.5499 22.5417 64.125C22.7708 63.8333 24.9167 61.25 29.5833 61.25C34.25 61.25 37.9167 64 37.9167 67.5C37.9167 71.3958 33.8958 73.1667 30.3333 74.7292C28.375 75.5833 25.4167 76.875 25.4167 77.9167C25.4167 78.5625 26.3125 79.1667 27.6458 79.7083L24.5417 82.8125Z" fill="#439CEF"/>
</svg>
