<svg width="200" height="160" viewBox="0 0 200 160" fill="none" xmlns="http://www.w3.org/2000/svg">
<path fill-rule="evenodd" clip-rule="evenodd" d="M83.75 73.75C83.4185 73.75 83.1005 73.8817 82.8661 74.1161C82.6317 74.3505 82.5 74.6685 82.5 75V87C82.5 87.8208 82.6617 88.6335 82.9758 89.3918C83.2898 90.1501 83.7502 90.8391 84.3306 91.4194C85.5027 92.5915 87.0924 93.25 88.75 93.25H113.233L104.865 101.615C104.63 101.85 104.498 102.168 104.498 102.5C104.498 102.832 104.63 103.15 104.865 103.385C105.1 103.62 105.418 103.752 105.75 103.752C106.082 103.752 106.4 103.62 106.635 103.385L117.135 92.885C117.251 92.7689 117.344 92.6309 117.407 92.4791C117.47 92.3272 117.502 92.1644 117.502 92C117.502 91.8356 117.47 91.6728 117.407 91.5209C117.344 91.3691 117.251 91.2311 117.135 91.115L107.135 81.115C106.9 80.8803 106.582 80.7484 106.25 80.7484C105.918 80.7484 105.6 80.8803 105.365 81.115C105.13 81.3497 104.998 81.6681 104.998 82C104.998 82.3319 105.13 82.6503 105.365 82.885L113.233 90.75H88.75C87.7554 90.75 86.8016 90.3549 86.0983 89.6517C85.3951 88.9484 85 87.9946 85 87V75C85 74.6685 84.8683 74.3505 84.6339 74.1161C84.3995 73.8817 84.0815 73.75 83.75 73.75V73.75Z" fill="#A1A1AA" stroke="#A1A1AA" stroke-width="2"/>
<path d="M48.8607 56.1399C46.813 54.093 44.0361 52.9431 41.1407 52.9431C38.2454 52.9431 35.4685 54.093 33.4207 56.1399L25.6982 63.8599C23.6504 65.9077 22.5 68.6851 22.5 71.5812C22.5 74.4772 23.6504 77.2546 25.6982 79.3024C27.746 81.3502 30.5235 82.5006 33.4195 82.5006C36.3155 82.5006 39.0929 81.3502 41.1407 79.3024L45.0007 75.4424" stroke="#439CEF" stroke-width="6" stroke-linecap="round" stroke-linejoin="round"/>
<path d="M41.1387 63.86C43.1864 65.9069 45.9633 67.0568 48.8587 67.0568C51.754 67.0568 54.5309 65.9069 56.5787 63.86L64.3012 56.14C66.349 54.0922 67.4994 51.3148 67.4994 48.4188C67.4994 45.5227 66.349 42.7453 64.3012 40.6975C62.2534 38.6497 59.476 37.4993 56.5799 37.4993C53.6839 37.4993 50.9065 38.6497 48.8587 40.6975L44.9987 44.5575" stroke="#439CEF" stroke-width="6" stroke-linecap="round" stroke-linejoin="round"/>
<path d="M131.252 78.7502C131.252 77.7557 131.647 76.8019 132.35 76.0986C133.054 75.3953 134.007 75.0002 135.002 75.0002H165.002C165.997 75.0002 166.95 75.3953 167.654 76.0986C168.357 76.8019 168.752 77.7557 168.752 78.7502V125H135.002C134.007 125 133.054 124.605 132.35 123.902C131.647 123.199 131.252 122.245 131.252 121.25V78.7502Z" stroke="#439CEF" stroke-width="5" stroke-linejoin="round"/>
<path d="M168.752 100C168.752 99.3372 169.015 98.7013 169.484 98.2325C169.953 97.7636 170.589 97.5002 171.252 97.5002H176.252C176.915 97.5002 177.551 97.7636 178.02 98.2325C178.489 98.7013 178.752 99.3372 178.752 100V121.25C178.752 122.245 178.357 123.199 177.654 123.902C176.95 124.605 175.997 125 175.002 125H168.752V100Z" stroke="#439CEF" stroke-width="5" stroke-linejoin="round"/>
<path d="M138.752 85H148.752" stroke="#439CEF" stroke-width="5" stroke-linecap="round" stroke-linejoin="round"/>
<path d="M138.752 93.7502H153.752" stroke="#439CEF" stroke-width="5" stroke-linecap="round" stroke-linejoin="round"/>
</svg>
