<svg width="243" height="40" viewBox="0 0 243 40" fill="none" xmlns="http://www.w3.org/2000/svg">
<path d="M0 5.7971C0 2.59545 2.59545 0 5.7971 0H34.2029C37.4045 0 40 2.59545 40 5.7971V34.2029C40 37.4045 37.4045 40 34.2029 40H5.7971C2.59545 40 0 37.4045 0 34.2029V5.7971Z" fill="#355BE4"/>
<g clip-path="url(#clip0)">
<path d="M15.6075 24.185L6.95654 32.836H24.1852L15.6075 24.185Z" fill="#B8C7FF"/>
<path d="M15.6807 24.2596L20.2994 32.7639H24.1117L15.6807 24.2596Z" fill="#8698D8"/>
<path d="M6.95654 15.6075H24.1852L32.8362 6.95654H15.6075L6.95654 15.6075Z" fill="#B8C7FF"/>
<path d="M32.8772 24.2269L24.2262 15.6493L15.6485 6.99829L6.99756 15.6493L15.6485 24.2269L24.2262 32.8779L32.8772 24.2269Z" fill="white"/>
</g>
<path d="M64.1057 16.6512C61.6702 19.8309 56.3256 22.6723 50.6427 23.4503V18.4778C57.3066 17.0233 61.129 13.5391 61.129 6.57082V4.37209H67.0486V6.57082C67.0486 13.4038 70.8034 16.9894 77.6025 18.4778V23.4503C72.0888 22.6723 66.5412 19.8309 64.1057 16.6512ZM78.2791 34.3763H50V29.4715H78.2791V34.3763Z" fill="black"/>
<path d="M109.229 4.54123V9.41226H89.9141V12.6934H108.891V17.4968H89.9141V20.8457H109.601V25.6829H83.9944V4.54123H109.229ZM110.751 34.3763H82.4722V29.4715H110.751V34.3763Z" fill="black"/>
<path d="M128.441 22.1649H115.723V11.0359H124.856V8.83721H115.723V4.37209H130.606V15.4334H121.439V17.7336H128.61C130.539 17.7336 132.264 17.7336 133.752 17.3277V21.5899C132.298 22.0634 130.471 22.1649 128.441 22.1649ZM141.668 4V22.9429H135.748V15.2981H131.621V10.3594H135.748V4H141.668ZM141.668 36H117.481V24.1607H141.668V36ZM135.816 31.5011V28.7611H123.334V31.5011H135.816Z" fill="black"/>
<path d="M168.254 18.2748C165.751 18.8499 162.842 18.9514 159.459 18.9514H148.939V14.0803H159.527C162.808 14.0803 165.717 14.0465 168.254 13.6068V9.47991H148.939V4.54123H174.174V16.4144C174.174 20.0677 173.869 23.9239 173.328 26.5624H167.408C167.882 24.2283 168.186 21.1163 168.254 18.2748ZM156.009 29.5391V21.2516H161.962V29.5391H175.696V34.3763H147.417V29.5391H156.009Z" fill="black"/>
<path d="M194.773 33.6998H180.87V16.5835H190.815V9.44609H180.87V4.54123H196.667V21.4207H186.722V28.8288H195.449C198.02 28.8288 199.61 28.4905 200.659 27.5433V4H206.578V35.6956H200.659V32.2114C199.576 33.2939 197.716 33.6998 194.773 33.6998Z" fill="black"/>
<path d="M224.031 19.0867C224.031 13.7759 223.693 10.8668 222.814 9.64905C222.408 9.17548 221.867 8.93869 221.291 8.93869C220.683 8.93869 220.141 9.17548 219.769 9.64905C218.856 10.8668 218.552 13.7759 218.552 19.0867C218.552 24.4651 218.856 27.408 219.769 28.592C220.141 29.0655 220.683 29.2685 221.291 29.2685C221.867 29.2685 222.408 29.0655 222.814 28.592C223.693 27.408 224.031 24.4651 224.031 19.0867ZM212.666 19.0867C212.666 12.8288 213.478 8.60042 215.676 6.26638C217.029 4.77801 218.89 4.03383 221.291 4.03383C223.626 4.03383 225.554 4.77801 226.907 6.26638C229.072 8.60042 229.883 12.8288 229.883 19.0867C229.883 25.4123 229.072 29.6406 226.907 31.9746C225.554 33.4292 223.626 34.1395 221.291 34.1395C218.89 34.1395 217.029 33.4292 215.676 31.9746C213.478 29.6406 212.666 25.4123 212.666 19.0867ZM232.387 4H238.306V16.2114H242.67V21.1501H238.306V35.6956H232.387V4Z" fill="black"/>
<defs>
<clipPath id="clip0">
<rect width="26.087" height="26.087" fill="white" transform="translate(6.95654 6.95654)"/>
</clipPath>
</defs>
</svg>
