<svg width="200" height="160" viewBox="0 0 200 160" fill="none" xmlns="http://www.w3.org/2000/svg">
<path fill-rule="evenodd" clip-rule="evenodd" d="M83.75 68.75C83.4185 68.75 83.1005 68.8817 82.8661 69.1161C82.6317 69.3505 82.5 69.6685 82.5 70V82C82.5 82.8208 82.6617 83.6335 82.9758 84.3918C83.2898 85.1501 83.7502 85.8391 84.3306 86.4194C85.5027 87.5915 87.0924 88.25 88.75 88.25H113.233L104.865 96.615C104.63 96.8497 104.498 97.1681 104.498 97.5C104.498 97.8319 104.63 98.1503 104.865 98.385C105.1 98.6197 105.418 98.7516 105.75 98.7516C106.082 98.7516 106.4 98.6197 106.635 98.385L117.135 87.885C117.251 87.7689 117.344 87.6309 117.407 87.4791C117.47 87.3272 117.502 87.1644 117.502 87C117.502 86.8356 117.47 86.6728 117.407 86.5209C117.344 86.3691 117.251 86.2311 117.135 86.115L107.135 76.115C106.9 75.8803 106.582 75.7484 106.25 75.7484C105.918 75.7484 105.6 75.8803 105.365 76.115C105.13 76.3497 104.998 76.6681 104.998 77C104.998 77.3319 105.13 77.6503 105.365 77.885L113.233 85.75H88.75C87.7554 85.75 86.8016 85.3549 86.0983 84.6517C85.3951 83.9484 85 82.9946 85 82V70C85 69.6685 84.8683 69.3505 84.6339 69.1161C84.3995 68.8817 84.0815 68.75 83.75 68.75Z" fill="#A1A1AA" stroke="#A1A1AA" stroke-width="2"/>
<path d="M64.75 85H27.25C25.5247 85 24.0518 84.3896 22.8311 83.1689C21.6104 81.9482 21 80.4753 21 78.75V47.5C21 45.7747 21.6104 44.3018 22.8311 43.0811C24.0518 41.8604 25.5247 41.25 27.25 41.25H30.375L33.5 36.5625C34.0859 35.5208 36.1693 35 39.75 35H52.25C55.8307 35 57.9141 35.5208 58.5 36.5625L61.625 41.25H64.75C66.4753 41.25 67.9482 41.8604 69.1689 43.0811C70.3896 44.3018 71 45.7747 71 47.5V78.75C71 80.4753 70.3896 81.9482 69.1689 83.1689C67.9482 84.3896 66.4753 85 64.75 85ZM36.625 38.125L33.5 42.8125L38.1875 47.5L42.875 41.25L36.625 38.125ZM40.5801 49.6973C39.7663 50.3158 38.9688 50.625 38.1875 50.625C37.1458 50.625 36.1042 50.1042 35.0625 49.0625L31.9375 45.9375C31.5143 45.5143 31.1562 44.9935 30.8633 44.375H27.25C26.4036 44.375 25.6712 44.6761 25.0527 45.2783C24.4342 45.8805 24.125 46.6211 24.125 47.5V78.75C24.125 79.6289 24.4261 80.3695 25.0283 80.9717C25.6305 81.5739 26.3711 81.875 27.25 81.875H36.625L42.9238 51.748L40.5801 49.6973ZM55.375 38.125L49.125 41.25L53.8125 47.5L58.5 42.8125L55.375 38.125ZM67.875 47.5C67.875 46.6211 67.5658 45.8805 66.9473 45.2783C66.3288 44.6761 65.5964 44.375 64.75 44.375H61.0879C60.8275 44.9935 60.4857 45.5143 60.0625 45.9375L56.9375 49.0625C55.8958 50.1042 54.8542 50.625 53.8125 50.625C53.0312 50.625 52.2337 50.3158 51.4199 49.6973L49.0273 51.7969L55.375 81.875H64.75C65.5964 81.875 66.3288 81.5739 66.9473 80.9717C67.5658 80.3695 67.875 79.6289 67.875 78.75V47.5Z" fill="#439CEF"/>
<path d="M154 79.1016C150.691 79.1016 147.75 78.125 147.75 78.125V78.3203C147.75 79.9779 148.408 81.5676 149.581 82.7397C150.753 83.9118 152.342 84.5703 154 84.5703C155.658 84.5703 157.247 83.9118 158.419 82.7397C159.592 81.5676 160.25 79.9779 160.25 78.3203V78.125C160.25 78.125 157.309 79.1016 154 79.1016Z" fill="#439CEF"/>
<path d="M163.375 79.2969C162.839 83.9609 158.806 87.5977 154 87.5977C149.194 87.5977 145.161 83.9609 144.625 79.2969L130.562 84.1797L132.32 95.3125L138.347 96.0371C139.038 96.125 139.04 96.125 139.04 96.8369L138.375 121.875H169.625L168.96 96.8369C168.939 96.1533 168.939 96.1533 169.653 96.0371L175.68 95.3125L177.438 84.1797L163.375 79.2969Z" fill="#439CEF"/>
</svg>
