<svg width="200" height="160" viewBox="0 0 200 160" fill="none" xmlns="http://www.w3.org/2000/svg">
<path fill-rule="evenodd" clip-rule="evenodd" d="M83.75 73.75C83.4185 73.75 83.1005 73.8817 82.8661 74.1161C82.6317 74.3505 82.5 74.6685 82.5 75V87C82.5 87.8208 82.6617 88.6335 82.9758 89.3918C83.2898 90.1501 83.7502 90.8391 84.3306 91.4194C85.5027 92.5915 87.0924 93.25 88.75 93.25H113.233L104.865 101.615C104.63 101.85 104.498 102.168 104.498 102.5C104.498 102.832 104.63 103.15 104.865 103.385C105.1 103.62 105.418 103.752 105.75 103.752C106.082 103.752 106.4 103.62 106.635 103.385L117.135 92.885C117.251 92.7689 117.344 92.6309 117.407 92.4791C117.47 92.3272 117.502 92.1644 117.502 92C117.502 91.8356 117.47 91.6728 117.407 91.5209C117.344 91.3691 117.251 91.2311 117.135 91.115L107.135 81.115C106.9 80.8803 106.582 80.7484 106.25 80.7484C105.918 80.7484 105.6 80.8803 105.365 81.115C105.13 81.3497 104.998 81.6681 104.998 82C104.998 82.3319 105.13 82.6503 105.365 82.885L113.233 90.75H88.75C87.7554 90.75 86.8016 90.3549 86.0983 89.6517C85.3951 88.9484 85 87.9946 85 87V75C85 74.6685 84.8683 74.3505 84.6339 74.1161C84.3995 73.8817 84.0815 73.75 83.75 73.75V73.75Z" fill="#A1A1AA" stroke="#A1A1AA" stroke-width="2"/>
<path d="M48.8607 56.1399C46.813 54.093 44.0361 52.9431 41.1407 52.9431C38.2454 52.9431 35.4685 54.093 33.4207 56.1399L25.6982 63.8599C23.6504 65.9077 22.5 68.6851 22.5 71.5812C22.5 74.4772 23.6504 77.2546 25.6982 79.3024C27.746 81.3502 30.5235 82.5006 33.4195 82.5006C36.3155 82.5006 39.0929 81.3502 41.1407 79.3024L45.0007 75.4424" stroke="#439CEF" stroke-width="6" stroke-linecap="round" stroke-linejoin="round"/>
<path d="M41.1387 63.86C43.1864 65.9069 45.9633 67.0568 48.8587 67.0568C51.754 67.0568 54.5309 65.9069 56.5787 63.86L64.3012 56.14C66.349 54.0922 67.4994 51.3148 67.4994 48.4188C67.4994 45.5227 66.349 42.7453 64.3012 40.6975C62.2534 38.6497 59.476 37.4993 56.5799 37.4993C53.6839 37.4993 50.9065 38.6497 48.8587 40.6975L44.9987 44.5575" stroke="#439CEF" stroke-width="6" stroke-linecap="round" stroke-linejoin="round"/>
<path d="M143.75 81.25C143.75 78.2663 144.935 75.4048 147.045 73.295C149.155 71.1853 152.016 70 155 70C157.984 70 160.845 71.1853 162.955 73.295C165.065 75.4048 166.25 78.2663 166.25 81.25V100C166.25 102.984 165.065 105.845 162.955 107.955C160.845 110.065 157.984 111.25 155 111.25C152.016 111.25 149.155 110.065 147.045 107.955C144.935 105.845 143.75 102.984 143.75 100V81.25Z" fill="#439CEF"/>
<path d="M138.125 94.375C138.622 94.375 139.099 94.5725 139.451 94.9242C139.802 95.2758 140 95.7527 140 96.25V100C140 103.978 141.58 107.794 144.393 110.607C147.206 113.42 151.022 115 155 115C158.978 115 162.794 113.42 165.607 110.607C168.42 107.794 170 103.978 170 100V96.25C170 95.7527 170.198 95.2758 170.549 94.9242C170.901 94.5725 171.378 94.375 171.875 94.375C172.372 94.375 172.849 94.5725 173.201 94.9242C173.552 95.2758 173.75 95.7527 173.75 96.25V100C173.75 104.648 172.024 109.131 168.905 112.578C165.787 116.025 161.5 118.191 156.875 118.656V126.25H168.125C168.622 126.25 169.099 126.448 169.451 126.799C169.802 127.151 170 127.628 170 128.125C170 128.622 169.802 129.099 169.451 129.451C169.099 129.802 168.622 130 168.125 130H141.875C141.378 130 140.901 129.802 140.549 129.451C140.198 129.099 140 128.622 140 128.125C140 127.628 140.198 127.151 140.549 126.799C140.901 126.448 141.378 126.25 141.875 126.25H153.125V118.656C148.5 118.191 144.213 116.025 141.095 112.578C137.976 109.131 136.25 104.648 136.25 100V96.25C136.25 95.7527 136.448 95.2758 136.799 94.9242C137.151 94.5725 137.628 94.375 138.125 94.375Z" fill="#439CEF"/>
</svg>
