<svg width="200" height="160" viewBox="0 0 200 160" fill="none" xmlns="http://www.w3.org/2000/svg">
<g clip-path="url(#clip0_7652:7029)">
<path d="M96.898 71.725C96.3941 71.725 95.9109 71.9252 95.5545 72.2815C95.1982 72.6378 94.998 73.1211 94.998 73.625V102.25C94.998 103.3 95.848 104.15 96.898 104.15C97.373 104.15 97.773 104 98.098 103.75L102.873 99.875L107.023 108.925C107.348 109.6 108.023 110 108.748 110C109.023 110 109.298 110 109.573 109.8L116.473 106.6C117.423 106.15 117.873 105 117.373 104.075L113.198 95L119.223 93.875C119.637 93.7674 120.011 93.5415 120.298 93.225C120.973 92.425 120.873 91.25 119.998 90.525L98.148 72.15L98.123 72.175C97.7811 71.8843 97.3469 71.7248 96.898 71.725ZM107.498 75V70H119.998V75H107.498ZM104.573 61.9L111.648 54.825L115.173 58.35L108.098 65.425L104.573 61.9ZM94.998 50H99.998V62.5H94.998V50ZM79.823 86.65L86.898 79.575L90.423 83.1L83.348 90.175L79.823 86.65ZM79.823 58.35L83.348 54.825L90.423 61.9L86.898 65.425L79.823 58.35ZM87.498 75H74.998V70H87.498V75Z" fill="#439CEF"/>
</g>
<defs>
<clipPath id="clip0_7652:7029">
<rect width="60" height="60" fill="white" transform="translate(70 50)"/>
</clipPath>
</defs>
</svg>
