<svg width="133" height="40" viewBox="0 0 133 40" fill="none" xmlns="http://www.w3.org/2000/svg">
<path d="M2.30936 17V4.4H5.99936L9.00536 9.278L12.0114 4.4H15.7014V17H12.2274V9.764L9.00536 14.696H8.93336L5.72936 9.8V17H2.30936ZM0.981719 37V34.462L7.29972 27.352H1.19772V24.4H12.1237V26.938L5.80572 34.048H12.1237V37H0.981719ZM48.8211 37V24.4H54.2211C57.4071 24.4 59.4591 26.038 59.4591 28.828V28.864C59.4591 31.834 57.1731 33.4 54.0411 33.4H52.3131V37H48.8211ZM52.3131 30.664H53.9691C55.2111 30.664 55.9671 30.016 55.9671 29.026V28.99C55.9671 27.91 55.2111 27.334 53.9511 27.334H52.3131V30.664Z" fill="#FE883C"/>
<path d="M17.7383 6.38V3.86H21.3023V6.38H17.7383ZM17.8103 17V7.262H21.2303V17H17.8103ZM27.0048 17.216C25.3668 17.216 23.7468 16.748 22.3968 15.776L23.6748 13.706C24.7908 14.444 26.0148 14.822 27.0228 14.822C27.6168 14.822 27.8868 14.642 27.8868 14.3V14.264C27.8868 13.886 27.3468 13.724 26.3208 13.436C24.3948 12.932 22.8648 12.284 22.8648 10.322V10.286C22.8648 8.216 24.5208 7.064 26.7708 7.064C28.1928 7.064 29.6688 7.478 30.7848 8.198L29.6148 10.358C28.6068 9.8 27.5088 9.458 26.7348 9.458C26.2128 9.458 25.9428 9.656 25.9428 9.926V9.962C25.9428 10.34 26.5008 10.52 27.5268 10.826C29.4528 11.366 30.9828 12.032 30.9828 13.922V13.958C30.9828 16.1 29.3808 17.216 27.0048 17.216ZM36.0751 17.216C34.4371 17.216 32.8171 16.748 31.4671 15.776L32.7451 13.706C33.8611 14.444 35.0851 14.822 36.0931 14.822C36.6871 14.822 36.9571 14.642 36.9571 14.3V14.264C36.9571 13.886 36.4171 13.724 35.3911 13.436C33.4651 12.932 31.9351 12.284 31.9351 10.322V10.286C31.9351 8.216 33.5911 7.064 35.8411 7.064C37.2631 7.064 38.7391 7.478 39.8551 8.198L38.6851 10.358C37.6771 9.8 36.5791 9.458 35.8051 9.458C35.2831 9.458 35.0131 9.656 35.0131 9.926V9.962C35.0131 10.34 35.5711 10.52 36.5971 10.826C38.5231 11.366 40.0531 12.032 40.0531 13.922V13.958C40.0531 16.1 38.4511 17.216 36.0751 17.216ZM41.4512 17V7.262H44.8712V8.594C45.5012 7.784 46.4012 7.046 47.7692 7.046C49.0652 7.046 50.0552 7.622 50.5772 8.63C51.4232 7.658 52.4132 7.046 53.8352 7.046C55.9052 7.046 57.1652 8.342 57.1652 10.61V17H53.7452V11.708C53.7452 10.646 53.2232 10.088 52.4132 10.088C51.6032 10.088 51.0092 10.646 51.0092 11.708V17H47.5892V11.708C47.5892 10.646 47.0672 10.088 46.2572 10.088C45.4472 10.088 44.8712 10.646 44.8712 11.708V17H41.4512ZM61.7139 17.216C59.8599 17.216 58.4379 16.154 58.4379 14.21V14.174C58.4379 12.158 59.9679 11.114 62.2539 11.114C63.1539 11.114 64.0359 11.294 64.5939 11.492V11.33C64.5939 10.322 63.9639 9.746 62.6499 9.746C61.6239 9.746 60.8319 9.944 59.9679 10.286L59.2659 7.874C60.3639 7.424 61.5339 7.118 63.2079 7.118C64.9539 7.118 66.1419 7.532 66.9159 8.306C67.6539 9.026 67.9599 10.034 67.9599 11.402V17H64.5759V15.992C63.9099 16.73 62.9919 17.216 61.7139 17.216ZM62.9379 15.074C63.9279 15.074 64.6299 14.444 64.6299 13.472V13.022C64.2879 12.878 63.8019 12.77 63.2979 12.77C62.3079 12.77 61.7319 13.256 61.7319 13.976V14.012C61.7319 14.678 62.2359 15.074 62.9379 15.074ZM73.4814 17.198C71.4294 17.198 70.2054 16.298 70.2054 13.976V10.016H69.0534V7.262H70.2054V4.796H73.6254V7.262H75.8934V10.016H73.6254V13.31C73.6254 13.994 73.9314 14.282 74.5614 14.282C75.0114 14.282 75.4434 14.156 75.8574 13.958V16.64C75.2454 16.982 74.4354 17.198 73.4814 17.198ZM81.7976 17.234C78.8636 17.234 76.7036 14.93 76.7036 12.176V12.14C76.7036 9.386 78.8456 7.064 81.9236 7.064C83.9216 7.064 85.2536 7.928 86.0816 9.242L83.7596 10.97C83.2916 10.322 82.7696 9.944 81.9416 9.944C80.8436 9.944 80.0336 10.916 80.0336 12.104V12.14C80.0336 13.4 80.8256 14.354 81.9776 14.354C82.7876 14.354 83.3096 13.976 83.8496 13.346L86.1356 15.002C85.2356 16.334 83.9396 17.234 81.7976 17.234ZM87.3477 17V3.86H90.7677V8.594C91.3977 7.784 92.2977 7.046 93.6837 7.046C95.7537 7.046 96.9957 8.414 96.9957 10.628V17H93.5757V11.726C93.5757 10.664 93.0177 10.088 92.2077 10.088C91.3797 10.088 90.7677 10.664 90.7677 11.726V17H87.3477ZM98.7559 6.38V3.86H102.32V6.38H98.7559ZM98.8279 17V7.262H102.248V17H98.8279ZM104.152 17V7.262H107.572V8.63C108.202 7.82 109.102 7.046 110.488 7.046C112.558 7.046 113.8 8.414 113.8 10.628V17H110.38V11.726C110.38 10.664 109.822 10.088 109.012 10.088C108.184 10.088 107.572 10.664 107.572 11.726V17H104.152ZM120.349 19.916C118.459 19.916 116.875 19.52 115.471 18.8L116.569 16.532C117.613 17.108 118.657 17.45 119.971 17.45C121.681 17.45 122.527 16.604 122.527 15.056V14.678C121.843 15.47 120.943 16.136 119.521 16.136C117.127 16.136 115.201 14.408 115.201 11.618V11.582C115.201 8.774 117.163 7.046 119.413 7.046C120.871 7.046 121.735 7.64 122.473 8.414V7.262H125.893V14.66C125.893 16.442 125.497 17.684 124.633 18.548C123.751 19.43 122.383 19.916 120.349 19.916ZM120.547 13.508C121.699 13.508 122.527 12.698 122.527 11.618V11.582C122.527 10.502 121.699 9.71 120.547 9.71C119.377 9.71 118.549 10.52 118.549 11.6V11.636C118.549 12.716 119.377 13.508 120.547 13.508ZM18.2205 37.234C15.1605 37.234 13.0005 35.2 13.0005 32.176V32.14C13.0005 29.296 15.0345 27.046 17.9145 27.046C21.2805 27.046 22.8285 29.512 22.8285 32.374C22.8285 32.59 22.8285 32.842 22.8105 33.076H16.2945C16.5645 34.138 17.3385 34.678 18.4005 34.678C19.2105 34.678 19.8585 34.372 20.5605 33.688L22.4505 35.254C21.5145 36.442 20.1645 37.234 18.2205 37.234ZM16.2405 31.33H19.6245C19.4985 30.25 18.8685 29.566 17.9325 29.566C17.0325 29.566 16.4205 30.268 16.2405 31.33ZM24.295 37V27.262H27.715V29.224C28.273 27.892 29.173 27.028 30.793 27.1V30.7H30.505C28.723 30.7 27.715 31.726 27.715 33.976V37H24.295ZM36.7864 37.234C33.6724 37.234 31.4224 34.948 31.4224 32.176V32.14C31.4224 29.368 33.6904 27.046 36.8224 27.046C39.9364 27.046 42.1864 29.332 42.1864 32.104V32.14C42.1864 34.912 39.9184 37.234 36.7864 37.234ZM36.8224 34.336C38.0644 34.336 38.8564 33.346 38.8564 32.176V32.14C38.8564 30.952 37.9924 29.944 36.7864 29.944C35.5444 29.944 34.7524 30.934 34.7524 32.104V32.14C34.7524 33.328 35.6164 34.336 36.8224 34.336ZM60.8064 37V23.86H64.2264V37H60.8064ZM68.9209 37.216C67.0669 37.216 65.6449 36.154 65.6449 34.21V34.174C65.6449 32.158 67.1749 31.114 69.4609 31.114C70.3609 31.114 71.2429 31.294 71.8009 31.492V31.33C71.8009 30.322 71.1709 29.746 69.8569 29.746C68.8309 29.746 68.0389 29.944 67.1749 30.286L66.4729 27.874C67.5709 27.424 68.7409 27.118 70.4149 27.118C72.1609 27.118 73.3489 27.532 74.1229 28.306C74.8609 29.026 75.1669 30.034 75.1669 31.402V37H71.7829V35.992C71.1169 36.73 70.1989 37.216 68.9209 37.216ZM70.1449 35.074C71.1349 35.074 71.8369 34.444 71.8369 33.472V33.022C71.4949 32.878 71.0089 32.77 70.5049 32.77C69.5149 32.77 68.9389 33.256 68.9389 33.976V34.012C68.9389 34.678 69.4429 35.074 70.1449 35.074ZM80.6884 37.198C78.6364 37.198 77.4124 36.298 77.4124 33.976V30.016H76.2604V27.262H77.4124V24.796H80.8324V27.262H83.1004V30.016H80.8324V33.31C80.8324 33.994 81.1384 34.282 81.7684 34.282C82.2184 34.282 82.6504 34.156 83.0644 33.958V36.64C82.4524 36.982 81.6424 37.198 80.6884 37.198ZM85.1823 37V29.998H84.0483V27.316H85.1823V27.1C85.1823 25.984 85.4343 25.156 86.0103 24.58C86.6043 23.986 87.3963 23.734 88.5483 23.734C89.5923 23.734 90.2403 23.842 90.7803 24.004V26.416C90.3843 26.29 89.9883 26.218 89.5023 26.218C88.8723 26.218 88.5303 26.506 88.5303 27.136V27.37H90.7623V29.998H88.5843V37H85.1823ZM96.6399 37.234C93.5259 37.234 91.2759 34.948 91.2759 32.176V32.14C91.2759 29.368 93.5439 27.046 96.6759 27.046C99.7899 27.046 102.04 29.332 102.04 32.104V32.14C102.04 34.912 99.7719 37.234 96.6399 37.234ZM96.6759 34.336C97.9179 34.336 98.7099 33.346 98.7099 32.176V32.14C98.7099 30.952 97.8459 29.944 96.6399 29.944C95.3979 29.944 94.6059 30.934 94.6059 32.104V32.14C94.6059 33.328 95.4699 34.336 96.6759 34.336ZM103.484 37V27.262H106.904V29.224C107.462 27.892 108.362 27.028 109.982 27.1V30.7H109.694C107.912 30.7 106.904 31.726 106.904 33.976V37H103.484ZM111.184 37V27.262H114.604V28.594C115.234 27.784 116.134 27.046 117.502 27.046C118.798 27.046 119.788 27.622 120.31 28.63C121.156 27.658 122.146 27.046 123.568 27.046C125.638 27.046 126.898 28.342 126.898 30.61V37H123.478V31.708C123.478 30.646 122.956 30.088 122.146 30.088C121.336 30.088 120.742 30.646 120.742 31.708V37H117.322V31.708C117.322 30.646 116.8 30.088 115.99 30.088C115.18 30.088 114.604 30.646 114.604 31.708V37H111.184Z" fill="#36AEFF"/>
<circle cx="130.5" cy="2.5" r="2.5" fill="#FE883C"/>
</svg>
