<?xml version="1.0" encoding="utf-8"?>
<!-- Generator: Adobe Illustrator 24.3.0, SVG Export Plug-In . SVG Version: 6.00 Build 0)  -->
<svg version="1.1" id="Layer_1" xmlns="http://www.w3.org/2000/svg" xmlns:xlink="http://www.w3.org/1999/xlink" x="0px" y="0px"
	 viewBox="0 0 40 40" style="enable-background:new 0 0 40 40;" xml:space="preserve">
<style type="text/css">
	.st0{fill:#355BE4;}
	.st1{clip-path:url(#SVGID_2_);}
	.st2{fill:#B8C7FF;}
	.st3{fill:#8698D8;}
	.st4{fill:#FFFFFF;}
</style>
<path class="st0" d="M0,5.8C0,2.6,2.6,0,5.8,0h28.4C37.4,0,40,2.6,40,5.8v28.4c0,3.2-2.6,5.8-5.8,5.8H5.8C2.6,40,0,37.4,0,34.2V5.8z
	"/>
<g>
	<defs>
		<rect id="SVGID_1_" x="7" y="7" width="26.1" height="26.1"/>
	</defs>
	<clipPath id="SVGID_2_">
		<use xlink:href="#SVGID_1_"  style="overflow:visible;"/>
	</clipPath>
	<g class="st1">
		<path class="st2" d="M15.6,24.2L7,32.8h17.2L15.6,24.2z"/>
		<path class="st3" d="M15.7,24.3l4.6,8.5h3.8L15.7,24.3z"/>
		<path class="st2" d="M7,15.6h17.2L32.8,7H15.6L7,15.6z"/>
		<path class="st4" d="M32.9,24.2l-8.7-8.6L15.6,7L7,15.6l8.7,8.6l8.6,8.7L32.9,24.2z"/>
	</g>
</g>
</svg>
