<svg width="85" height="56" viewBox="0 0 85 56" fill="none" xmlns="http://www.w3.org/2000/svg">
<path style="mix-blend-mode:multiply" d="M56.2586 33.9103C57.558 27.3178 47.9309 19.8684 34.756 17.2717C21.5811 14.6749 9.84741 17.9141 8.54803 24.5066C7.24866 31.0991 16.8757 38.5484 30.0506 41.1452C43.2255 43.742 54.9592 40.5028 56.2586 33.9103Z" fill="url(#paint0_radial_764_4552)"/>
<path d="M61.1705 18.9917C63.2514 19.3758 65.5499 19.477 67.2002 20.5582C70.0248 22.411 69.2532 25.9571 67.3829 28.3464C55.8973 43.0243 22.5194 39.811 12.5561 24.8678C9.15774 19.7703 7.80075 13.2134 11.1839 8.04263C15.4539 1.51484 26.7766 -0.261126 35.0105 3.11507C44.833 7.14301 49.9119 16.9155 61.1705 18.9917Z" fill="url(#paint1_linear_764_4552)"/>
<path style="mix-blend-mode:multiply" d="M65.8849 24.3318C66.1864 19.8987 55.033 15.5299 40.9731 14.5738C26.9132 13.6178 15.2711 16.4365 14.9696 20.8696C14.6682 25.3027 25.8216 29.6715 39.8815 30.6275C53.9414 31.5836 65.5835 28.7649 65.8849 24.3318Z" fill="url(#paint2_radial_764_4552)"/>
<path d="M64.8233 34.5252C74.1058 29.6687 74.96 20.4362 66.484 14.9628C66.4037 14.9105 66.3234 14.8604 66.2454 14.8115C62.4852 12.4641 56.3356 11.4388 52.1378 13.4278C48.8489 14.9861 47.0043 18.154 42.9973 18.4612C38.9333 18.7731 36.1727 15.9428 33.2178 14.0539C29.3691 11.5936 23.2952 10.4659 18.5166 12.0417C13.7392 13.6175 11.5291 18.2715 14.9379 21.0053C16.8047 22.5031 19.0496 22.2913 21.6624 23.1607C24.2751 24.0289 23.5349 27.1444 23.6956 29.0891C23.9283 31.9044 21.6403 31.7566 20.0808 34.3774C18.4456 37.1252 22.491 41.451 26.3281 42.9279C30.1663 44.4048 34.8809 44.4455 39.2661 44.0219C46.5655 43.3178 56.679 38.7871 64.8233 34.5264V34.5252Z" fill="url(#paint3_linear_764_4552)"/>
<path style="mix-blend-mode:multiply" d="M40.8231 50.5914C54.9154 50.5914 66.3395 47.4817 66.3395 43.6458C66.3395 39.8098 54.9154 36.7002 40.8231 36.7002C26.7307 36.7002 15.3066 39.8098 15.3066 43.6458C15.3066 47.4817 26.7307 50.5914 40.8231 50.5914Z" fill="url(#paint4_radial_764_4552)"/>
<path d="M36.6589 28.6473C36.1957 29.306 35.75 29.9763 35.324 30.6583C34.8969 31.3415 34.4581 32.006 34.0077 32.6508C33.5562 33.2967 33.0814 33.9065 32.5821 34.4791C32.0816 35.0517 31.5393 35.5707 30.9551 36.0328C30.2242 36.6414 29.4794 37.0499 28.7241 37.2583C27.9676 37.4654 27.1878 37.4468 26.3837 37.2036C26.3837 37.1547 26.322 37.1302 26.2009 37.1302C24.4459 36.6182 23.2391 35.8442 22.5803 34.8084C21.9216 33.7727 21.69 32.34 21.8855 30.5117C22.0077 29.2932 22.2382 28.0979 22.5803 26.9283C22.9213 25.7587 23.2623 24.5879 23.6045 23.4183C23.9455 22.1509 24.2993 20.8893 24.6647 19.6336C25.0301 18.3778 25.3839 17.1046 25.7249 15.8116C25.9926 14.642 25.981 13.7215 25.6889 13.0511C25.3967 12.3807 24.9324 12.0817 24.2993 12.155C23.7872 12.2283 23.2879 12.4715 22.8003 12.8858C22.3127 13.3002 21.8681 13.7878 21.4654 14.3487C21.0627 14.9097 20.7089 15.4823 20.4052 16.0677C20.1003 16.6531 19.8989 17.1407 19.8023 17.5306C19.2903 19.0424 18.4069 23.004 17.8099 23.0528C17.2117 23.1017 16.6333 23.0656 16.0723 22.9434C14.0485 22.3825 13.0011 21.0418 12.9277 18.9213C12.9277 17.7273 13.171 16.5623 13.6586 15.4288C14.1462 14.2952 14.8224 13.2652 15.6883 12.3389C16.553 11.4125 17.5585 10.6199 18.7049 9.96236C19.85 9.30365 21.0814 8.85325 22.3988 8.60885C23.3252 8.43894 24.269 8.35864 25.2326 8.37144C26.1951 8.38424 27.0912 8.50528 27.9199 8.73687C28.7485 8.96847 29.4677 9.33507 30.0776 9.83434C30.6862 10.3348 31.1134 10.9865 31.3578 11.7907C31.6988 12.8393 31.8698 13.9181 31.8698 15.0272C31.8698 16.1363 31.7116 17.2757 31.395 18.4465C31.1262 19.3973 30.8282 20.354 30.4989 21.3176C30.1695 22.2812 29.8343 23.2379 29.4933 24.1887C28.7857 26.0659 28.2504 27.9071 27.8838 29.711C27.615 30.9062 27.5358 31.7651 27.6464 32.2888C27.7558 32.8137 27.9757 33.0627 28.3051 33.0383C28.6345 33.0139 29.036 32.7636 29.512 32.2888C29.988 31.814 30.457 31.1739 30.9202 30.3685C31.6999 28.8824 32.4378 27.388 33.1326 25.889C33.8274 24.3901 34.3813 22.8352 34.7968 21.2268C35.1622 19.7884 35.4858 18.3685 35.7663 16.9661C36.0467 15.5649 36.2236 14.1684 36.297 12.7788C36.3214 12.0235 36.3819 11.4136 36.4797 10.9504C36.5763 10.4872 36.7415 10.1276 36.9731 9.87158C37.2047 9.61555 37.5271 9.44563 37.9426 9.35951C38.3569 9.27455 38.905 9.23149 39.5882 9.23149C40.8556 9.28037 41.8797 9.69469 42.6595 10.4744C43.7569 11.4986 44.0363 12.766 43.5009 14.2778C43.1587 15.3263 42.8247 16.3563 42.4954 17.3677C42.166 18.379 41.8669 19.3973 41.5992 20.4215C41.1605 22.031 40.7334 23.6033 40.3191 25.1384C39.9047 26.6746 39.7337 28.2341 39.807 29.8192C39.8314 30.2824 39.9594 30.6723 40.191 30.9888C40.4226 31.3054 40.6961 31.587 41.0139 31.8303C41.647 32.2446 42.251 32.3482 42.8236 32.141C43.3962 31.9339 43.9385 31.5254 44.4506 30.9155C44.9626 30.3069 45.4375 29.5318 45.8762 28.5937C46.315 27.6557 46.7235 26.6502 47.1017 25.5771C47.48 24.5041 47.8151 23.4194 48.1072 22.3231C48.3994 21.2257 48.6554 20.2027 48.8754 19.2519C49.0953 18.301 49.2652 17.4724 49.3874 16.7648C49.5096 16.0584 49.5946 15.5707 49.6435 15.3019C49.7401 14.5222 49.8018 13.7727 49.8262 13.0534C49.8506 12.3342 50.4965 9.03714 51.1797 8.86606C52.7159 8.45174 54.1288 8.56114 55.4218 9.19541C56.7625 9.87857 57.2862 10.9993 56.9941 12.56C56.6519 14.2184 56.2632 15.9606 55.8244 17.789C55.3857 19.6173 54.8794 21.4154 54.3068 23.1832C53.7342 24.951 53.0872 26.6455 52.3691 28.2667C51.6499 29.8879 50.8387 31.3205 49.9368 32.5635C49.6202 33.0022 49.2722 33.441 48.894 33.8797C48.5157 34.3185 48.1131 34.7212 47.6871 35.0866C47.26 35.452 46.8026 35.7453 46.3162 35.9641C45.8285 36.1841 45.3048 36.2935 44.7439 36.2935C43.3787 36.2935 42.166 36.0735 41.1058 35.6348C40.0456 35.196 39.0878 34.5501 38.2347 33.697C37.7226 33.1849 37.3572 32.5995 37.1372 31.942C36.9173 31.2844 36.7834 30.5885 36.7345 29.8576C36.7101 29.6633 36.6915 29.4794 36.6798 29.3095C36.667 29.1396 36.6612 28.9196 36.6612 28.6508L36.6589 28.6473Z" fill="#FEFFFD"/>
<path d="M61.1956 27.0393C61.4389 27.6002 61.7194 27.9959 62.0371 28.2275C62.3536 28.4591 62.6888 28.5755 63.0426 28.5755C63.3964 28.5755 63.7618 28.4963 64.1401 28.3381C64.5183 28.1798 64.9012 27.9668 65.2922 27.698C65.6088 27.5036 65.9137 27.2895 66.207 27.0579C66.4991 26.8263 66.804 26.5889 67.1217 26.3445C68.0726 25.6625 68.8523 25.808 69.4621 26.7832C69.8031 27.2464 69.9742 27.734 69.9742 28.2461C69.9742 28.7582 69.852 29.2575 69.6088 29.7451C69.3888 30.1594 69.1456 30.5493 68.8779 30.9147C68.6091 31.2802 68.3053 31.6095 67.9632 31.9016C66.8657 32.8036 65.653 33.3645 64.3251 33.5833C62.996 33.8033 61.7159 33.7358 60.4857 33.382C59.2544 33.0294 58.1569 32.4195 57.1945 31.5537C56.2308 30.689 55.5675 29.6101 55.202 28.3171C54.69 26.2688 54.733 24.3928 55.3301 22.6855C55.9271 20.9793 57.0676 19.5281 58.7493 18.334C59.358 17.8952 60.0528 17.5426 60.8337 17.2738C61.6134 17.0061 62.4118 16.8839 63.2288 16.9083C64.0458 16.9328 64.8558 17.1225 65.6612 17.4751C66.4653 17.8289 67.2207 18.4073 67.9283 19.2127C68.2937 19.6025 68.5614 20.0483 68.7324 20.5475C68.9024 21.048 68.964 21.5414 68.9152 22.0291C68.8663 22.5167 68.6952 22.9799 68.4031 23.4187C68.111 23.8574 67.6594 24.2228 67.0496 24.5161C66.4153 24.8082 65.7822 25.1015 65.1479 25.3936C64.5136 25.6858 63.8805 25.9662 63.2463 26.2351C62.6609 26.5039 61.9789 26.7716 61.198 27.0393H61.1956ZM64.5602 21.8836C64.0726 21.4204 63.5907 21.1702 63.1159 21.1341C62.6411 21.098 62.1593 21.2132 61.6716 21.4821C61.2818 21.702 60.9454 21.9697 60.6661 22.2863C60.3856 22.6028 60.246 23.0427 60.246 23.6025C61.0257 23.4803 61.7752 23.2918 62.4944 23.0358C63.2137 22.7797 63.9026 22.3957 64.5602 21.8836Z" fill="#FEFFFD"/>
<path d="M83.6079 45.0059C83.495 44.8314 83.3752 44.6801 83.253 44.5486C83.4322 44.1727 83.5439 43.7758 83.5847 43.3626C83.6394 42.8098 83.573 42.2512 83.3857 41.7007C83.2029 41.1654 82.9143 40.6824 82.5279 40.2634C81.9332 39.5919 81.2675 39.0915 80.5471 38.7749C79.8512 38.4688 79.1308 38.3036 78.4069 38.2815C77.6981 38.2605 76.9964 38.3676 76.3214 38.5992C75.7197 38.8063 75.1703 39.0845 74.6909 39.4185C74.5512 39.273 74.3988 39.1345 74.2288 39.0054L74.2172 38.996C73.5713 38.5119 72.8358 38.15 72.0281 37.9207C71.232 37.6949 70.415 37.61 69.598 37.6693C68.7578 37.7298 67.9396 37.9544 67.1657 38.3362C66.6967 38.5678 66.2614 38.861 65.8611 39.2114C65.4724 38.8482 65.022 38.5666 64.5204 38.3757C63.5823 38.0196 62.5361 37.9882 61.4118 38.2838C61.0336 38.3827 60.6577 38.5224 60.2864 38.7004C60.0583 38.4665 59.8011 38.2617 59.516 38.0871C58.8387 37.6728 58.0775 37.4878 57.2536 37.5355C56.4133 37.5692 55.7104 37.8264 55.1669 38.3013C54.8468 38.5806 54.5884 38.9367 54.3918 39.3638C54.0694 39.1252 53.7331 38.9274 53.3839 38.7738C52.688 38.4677 51.9676 38.3024 51.2437 38.2803C50.5349 38.2594 49.8331 38.3664 49.1581 38.598C48.9603 38.6655 48.7706 38.7447 48.5844 38.8273C48.4145 38.5666 48.2015 38.3373 47.9501 38.1511C47.5847 37.8834 47.1564 37.7031 46.6722 37.6169C46.3429 37.5587 45.9961 37.5378 45.6376 37.5564C44.8858 37.5657 44.2632 37.7647 43.786 38.1511C43.4776 38.4013 43.2146 38.7295 42.9713 39.1706C42.5628 38.6667 41.9577 38.3338 41.1698 38.1825L41.0813 38.1674C40.7543 38.1209 40.4121 38.1092 40.0583 38.1313L39.3938 38.1744C38.578 38.2233 37.8401 38.5398 37.2582 39.0798C37.2303 39.0577 37.2035 39.0345 37.1744 39.0135C36.3807 38.4246 35.4124 38.1465 34.3743 38.207C33.5282 38.257 32.6635 38.4886 31.8046 38.8936C31.7557 38.9169 31.7069 38.9402 31.6591 38.9635C31.4322 38.6935 31.1587 38.4619 30.8433 38.2698C30.4674 38.0429 30.0601 37.8788 29.6283 37.7845C29.2338 37.6984 28.8241 37.667 28.4063 37.6914C27.9664 37.717 27.5556 37.8113 27.1832 37.9684C26.3568 38.2768 25.7854 39.0007 25.6365 39.9329C25.5375 40.4613 25.4293 40.9955 25.3187 41.5273C25.0452 41.3795 24.7194 41.2573 24.3295 41.1852L24.2143 41.1677C24.1864 41.1642 24.1596 41.1607 24.1317 41.1584C24.1305 41.1386 24.1293 41.1177 24.127 41.0979C24.0432 40.0947 23.6068 39.2253 22.8643 38.5829C22.1264 37.944 21.2 37.6356 20.1887 37.6903C19.3752 37.7333 18.5873 37.9486 17.8471 38.3292L17.8052 38.3513C17.6551 38.4339 17.5073 38.5189 17.3595 38.605C17.3944 38.0173 17.3478 37.4331 17.2198 36.8605L17.1954 36.7615C17.0045 36.0842 16.7089 35.4697 16.3167 34.9344C15.907 34.3769 15.4019 33.9195 14.8154 33.575C14.2731 33.2562 13.6714 33.0257 13.0231 32.8896C12.3807 32.7546 11.7127 32.7278 11.0377 32.8069C9.76447 32.9443 8.5611 33.2573 7.4613 33.738C6.31379 34.2396 5.25822 34.9774 4.32252 35.9317C3.4066 36.864 2.5966 37.9591 1.91344 39.1857C1.22796 40.4159 0.713558 41.7333 0.383038 43.1078C-0.127873 45.2538 -0.127873 47.2335 0.384201 48.9908C0.925371 50.8471 1.97396 52.3344 3.51251 53.4156C4.45868 54.0708 5.51076 54.5375 6.63849 54.8005C7.37169 54.9716 8.10256 55.0577 8.82296 55.0577C9.19886 55.0577 9.57128 55.0345 9.94021 54.9879C11.0633 54.8448 12.113 54.4723 13.0604 53.8788C14.0659 53.2492 14.8596 52.3717 15.4194 51.2719L15.4415 51.2265C15.4788 51.1473 15.5148 51.067 15.5486 50.9879C16.3854 51.1951 17.2035 51.2195 17.9844 51.0601C18.5442 50.946 19.1017 50.7621 19.651 50.5131C19.9513 50.8494 20.3004 51.1415 20.6961 51.3848C21.5364 51.9015 22.4697 52.1622 23.4799 52.1622C23.6836 52.1622 23.8907 52.1517 24.1014 52.1308C24.8195 52.0656 25.5608 51.8654 26.3173 51.5395C26.8992 51.756 27.5951 51.8468 28.4017 51.8084L28.4959 51.8014C28.9289 51.7583 29.5666 51.6489 30.0996 51.1927C30.5268 50.8261 30.7421 50.3513 30.8666 49.9556C30.9841 50.2419 31.1354 50.5142 31.3205 50.7691C31.779 51.4022 32.454 51.8479 33.3269 52.0935L33.47 52.1273C33.8157 52.1948 34.1555 52.2285 34.4907 52.2285C35.0563 52.2285 35.6033 52.1319 36.127 51.9399C36.4785 51.8119 36.8113 51.6454 37.1255 51.4464C37.5573 51.813 38.0496 52.083 38.5896 52.246C39.0167 52.3752 39.466 52.4403 39.9303 52.4403C40.0327 52.4403 40.1363 52.4368 40.2399 52.431C40.8136 52.3961 41.3804 52.253 41.9274 52.0062C42.5047 51.7595 43.0644 51.351 43.6394 50.7563C44.1014 50.278 44.5704 49.7089 45.0348 49.0653C45.0883 48.9908 45.1418 48.9117 45.1965 48.8349C45.5015 49.3632 45.8832 49.8392 46.3452 50.2535C47.1285 50.9576 48.0351 51.4604 49.0371 51.7479C49.6562 51.9259 50.294 52.0155 50.9434 52.0155C51.3391 52.0155 51.7406 51.9818 52.1433 51.9155C52.7089 51.8223 53.2501 51.6548 53.7656 51.415C54.0682 51.6978 54.4197 51.9352 54.8131 52.1191L54.9434 52.1738C55.2995 52.3077 55.6708 52.4031 56.0432 52.4578C56.2352 52.4857 56.4261 52.5008 56.6146 52.5008C56.8928 52.5008 57.1651 52.4694 57.4281 52.4077C57.9425 52.2879 58.4069 52.0481 58.8096 51.6955C59.2472 51.3126 59.5637 50.8017 59.7523 50.1756L59.7755 50.0929C59.8942 49.6181 60.0094 49.1479 60.12 48.6801C60.177 48.4415 60.2399 48.1983 60.3085 47.9539C60.8718 48.5812 61.8669 49.1351 63.6126 49.0699C63.3728 49.5006 63.2192 49.9428 63.1564 50.3967C63.0074 51.4697 63.3368 52.5486 64.1351 53.6065C64.6635 54.3047 65.3245 54.8622 66.0985 55.2649C66.8363 55.6489 67.6242 55.8852 68.4401 55.9667C68.6414 55.9864 68.8427 55.9969 69.0441 55.9969C69.6737 55.9969 70.301 55.8992 70.919 55.7036C71.7662 55.4348 72.5285 54.9774 73.1942 54.3327C74.1439 53.3993 74.7781 52.388 75.0866 51.3184C75.4427 51.493 75.8151 51.6361 76.2015 51.7467C76.8206 51.9248 77.4584 52.0144 78.1078 52.0144C78.5035 52.0144 78.905 51.9806 79.3077 51.9143C80.4226 51.7304 81.4479 51.2591 82.3545 50.5131L82.3836 50.4886C82.6932 50.2233 82.9725 49.9207 83.2169 49.589C83.4299 49.2981 83.6254 48.9862 83.7965 48.6615L83.8163 48.623C84.0898 48.0761 84.2282 47.4976 84.2282 46.9064C84.2282 46.2349 84.0129 45.5774 83.6056 45.0013L83.6079 45.0059ZM10.8456 45.5541C10.7956 45.6006 10.7467 45.6425 10.699 45.6809L10.621 45.7473C10.2789 46.0545 9.91926 46.3245 9.5515 46.5526C9.28731 46.7156 8.98705 46.825 8.62278 46.889C8.44123 46.9216 8.27946 46.9239 8.1398 46.896C8.00596 46.8692 7.89191 46.8238 7.7895 46.7563C7.70919 46.7028 7.64518 46.6353 7.58583 46.5433C7.52415 46.4444 7.48342 46.3269 7.46363 46.1965C7.37169 45.5425 7.37402 44.8872 7.47178 44.246C7.49505 44.0958 7.52182 43.9469 7.55324 43.7991C7.83838 44.2623 8.20148 44.6417 8.64024 44.9349C9.27218 45.3562 10.0135 45.5634 10.8445 45.5553L10.8456 45.5541Z" fill="url(#paint5_linear_764_4552)"/>
<path d="M5.63359 36.9966C6.40868 36.2064 7.26408 35.607 8.20094 35.1974C9.13664 34.7877 10.1538 34.5247 11.2513 34.4072C11.7343 34.349 12.2021 34.3676 12.656 34.4618C13.1087 34.5573 13.523 34.7144 13.8954 34.9332C14.269 35.1531 14.5867 35.4418 14.8498 35.8002C15.1128 36.1587 15.3106 36.5718 15.4421 37.0397C15.5876 37.6984 15.5853 38.3711 15.4317 39.0577C15.278 39.7455 15.0185 40.3891 14.6531 40.9885C14.2876 41.5878 13.8442 42.1069 13.3252 42.5456C12.8061 42.9844 12.2533 43.2695 11.6691 43.401C9.98622 43.7816 8.99931 43.131 8.7072 41.4482C8.58965 40.7173 8.66297 40.0295 8.92716 39.3859C9.08776 38.9763 9.29608 38.7202 9.55212 38.6178C9.80816 38.5154 10.134 38.5596 10.5286 38.7493C10.6601 38.8075 10.7881 38.8703 10.9126 38.9355C11.0371 39.0019 11.1652 39.0496 11.2967 39.0787C11.6481 39.1659 11.9693 39.1776 12.2615 39.1113C12.5536 39.0449 12.8247 38.8738 13.0738 38.5957C13.2495 38.3909 13.3333 38.1825 13.3263 37.9707C13.3194 37.7589 13.2123 37.5727 13.0086 37.4109C12.8911 37.3085 12.7596 37.2212 12.6141 37.1479C12.4675 37.0746 12.3138 37.0385 12.1532 37.0385C11.7145 37.0094 11.2862 37.0315 10.8695 37.1049C10.4529 37.1782 10.0537 37.3388 9.67432 37.5878C8.91319 38.0848 8.25564 38.6597 7.69934 39.3103C7.14305 39.9608 6.69731 40.6591 6.36097 41.4051C6.02463 42.1511 5.79419 42.9344 5.66967 43.7525C5.54514 44.5718 5.54165 45.3981 5.65919 46.2314C5.71738 46.6259 5.8454 46.9809 6.04325 47.2951C6.2411 47.6094 6.48899 47.8654 6.78925 48.0632C7.08835 48.2611 7.42119 48.3961 7.78779 48.4694C8.15323 48.5427 8.54078 48.5427 8.95044 48.4694C9.53583 48.367 10.0584 48.1738 10.5192 47.8875C10.9801 47.6024 11.4224 47.2695 11.8471 46.889C12.0671 46.7132 12.2859 46.5014 12.5059 46.2524C12.6222 46.0918 12.7584 45.9777 12.912 45.9125C13.0657 45.8462 13.2193 45.8322 13.3729 45.8683C13.5265 45.9055 13.6685 45.9824 13.8012 46.0987C13.9327 46.2163 14.0281 46.3699 14.0863 46.5596C14.3063 47.2032 14.3819 47.8282 14.3167 48.4357C14.2504 49.0432 14.0793 49.639 13.8012 50.2244C13.3915 51.0286 12.8247 51.6582 12.1009 52.111C11.377 52.5637 10.5833 52.8465 9.71971 52.9559C8.85617 53.0653 7.97167 53.0141 7.06507 52.8023C6.15847 52.5905 5.32402 52.2204 4.56405 51.6943C3.3793 50.861 2.57511 49.7158 2.15032 48.2611C1.72669 46.8063 1.73368 45.1561 2.17243 43.3138C2.46455 42.0999 2.91494 40.9477 3.52128 39.8584C4.12762 38.7691 4.83405 37.8148 5.63824 36.9955L5.63359 36.9966Z" fill="white"/>
<path d="M20.3556 47.7925C20.1648 47.9101 20.0007 48.016 19.8622 48.1102C19.7225 48.2057 19.5805 48.2895 19.4339 48.3628C18.8345 48.6991 18.2305 48.9296 17.6242 49.0541C17.0167 49.1786 16.3696 49.1309 15.683 48.9109C15.0533 48.7212 14.5785 48.4396 14.2573 48.066C13.9361 47.6924 13.7313 47.2758 13.6428 46.8149C13.5544 46.3541 13.566 45.8757 13.6754 45.3776C13.7848 44.8807 13.9722 44.4047 14.2352 43.952C14.7473 43.0163 15.3839 42.2074 16.1438 41.5278C16.9038 40.8481 17.7522 40.2522 18.6891 39.7401C19.2011 39.4771 19.7342 39.3305 20.2905 39.3014C20.8316 39.2723 21.2925 39.4224 21.6731 39.7506C22.0536 40.08 22.2654 40.5071 22.3097 41.0343C22.3388 41.4149 22.2876 41.707 22.156 41.9118C22.0245 42.1166 21.7755 42.2772 21.41 42.3948C21.0295 42.5554 20.6536 42.7172 20.28 42.8778C19.9064 43.0384 19.5375 43.2141 19.172 43.4038C18.5424 43.7401 18.0234 44.2371 17.6137 44.8958C17.3798 45.2764 17.303 45.6278 17.3833 45.9491C17.4636 46.2714 17.6579 46.432 17.9652 46.432C18.2282 46.432 18.525 46.3191 18.8543 46.0922C19.1837 45.8653 19.5049 45.5987 19.8203 45.2915C20.1345 44.9843 20.4313 44.67 20.7094 44.3477C20.9876 44.0264 21.2145 43.7704 21.3891 43.5795C21.7545 43.185 22.1607 42.936 22.6064 42.8335C23.0522 42.7311 23.5165 42.709 23.9995 42.7672C24.394 42.8405 24.6687 43.0081 24.8223 43.2723C24.9759 43.5353 24.9794 43.8577 24.8328 44.2371C24.7595 44.4861 24.6606 44.7305 24.5372 44.9726C24.4127 45.2135 24.2998 45.4591 24.1974 45.7081C24.124 45.8839 24.0693 46.0666 24.0333 46.2563C23.996 46.446 23.996 46.6078 24.0333 46.7393C24.0693 46.8708 24.1578 46.9662 24.2963 47.0244C24.4348 47.0826 24.6512 47.0756 24.9434 47.0023C25.4985 46.8417 26.0187 46.5344 26.5017 46.0806C26.9847 45.6278 27.4153 45.1518 27.7959 44.6549C27.9122 44.4943 28.0589 44.3768 28.2346 44.3034C28.4103 44.2301 28.5861 44.2301 28.7606 44.3034C29.0819 44.4349 29.3123 44.599 29.4519 44.7969C29.5904 44.9947 29.6638 45.2031 29.6719 45.4218C29.6789 45.6406 29.6312 45.8641 29.5288 46.091C29.4263 46.318 29.3018 46.5333 29.1563 46.7381C28.3661 47.7914 27.5037 48.5955 26.5669 49.1518C25.6312 49.7081 24.7525 50.0224 23.9343 50.0957C23.0859 50.183 22.3295 50.0224 21.6638 49.6127C20.9981 49.2031 20.5628 48.5967 20.358 47.7914L20.3556 47.7925Z" fill="white"/>
<path d="M30.8862 41.4059C31.3691 40.9962 31.9359 40.6377 32.5865 40.3305C33.237 40.0233 33.8702 39.851 34.4846 39.8149C35.0991 39.7789 35.6333 39.929 36.086 40.2653C36.5388 40.6017 36.8029 41.201 36.8763 42.0646C36.9205 42.6348 36.8763 43.1981 36.7448 43.7544C36.6132 44.3107 36.4957 44.8658 36.3933 45.4221C36.3491 45.6561 36.2979 45.8981 36.2397 46.146C36.1815 46.3951 36.1303 46.643 36.086 46.892C36.0127 47.2284 35.9988 47.5065 36.0418 47.7253C36.086 47.9453 36.2827 48.0698 36.6342 48.0989C36.9123 48.128 37.0695 48.249 37.1055 48.4608C37.1416 48.6727 37.0648 48.881 36.8751 49.0858C36.4806 49.5106 36.0232 49.8178 35.5041 50.0075C34.9851 50.1972 34.4253 50.2345 33.8259 50.1169C33.3581 49.9854 33.0171 49.7736 32.8053 49.4803C32.5935 49.1882 32.4654 48.8589 32.4212 48.4934C32.377 48.128 32.3956 47.7404 32.4759 47.3308C32.5562 46.9211 32.6482 46.5336 32.7506 46.1681C33.0287 45.2173 33.1637 44.483 33.1567 43.9627C33.1498 43.4437 33.0543 43.1004 32.8716 42.9316C32.6889 42.764 32.4468 42.7489 32.1477 42.8874C31.8475 43.027 31.5367 43.2749 31.2155 43.6334C30.8931 43.9918 30.5905 44.4457 30.3054 44.9939C30.0203 45.542 29.812 46.1309 29.6805 46.7605C29.6071 47.0678 29.5233 47.4448 29.4279 47.8906C29.3325 48.3375 29.2487 48.7134 29.1754 49.0206C29.102 49.3139 29.0148 49.5036 28.9123 49.5909C28.8099 49.6782 28.6121 49.7375 28.32 49.7666C27.3982 49.8109 26.7768 49.6503 26.4555 49.2837C26.1343 48.9182 26.0168 48.2455 26.1041 47.2656C26.1192 47.0608 26.1483 46.8234 26.1914 46.5522C26.2356 46.2822 26.2833 46.004 26.3345 45.7189C26.3857 45.4338 26.4369 45.1556 26.4881 44.8856C26.5393 44.6156 26.5871 44.377 26.6313 44.1722C26.7477 43.4704 26.8803 42.7791 27.0258 42.0983C27.1713 41.4187 27.3109 40.7274 27.4425 40.0244C27.4867 39.7172 27.6252 39.5275 27.8591 39.4542C28.0488 39.3669 28.2688 39.3157 28.5178 39.3005C28.7669 39.2866 29.0078 39.304 29.2417 39.3552C29.4756 39.4064 29.6944 39.4949 29.9004 39.6182C30.1052 39.7428 30.2658 39.8999 30.3834 40.0896C30.4998 40.2502 30.5952 40.4515 30.6685 40.6924C30.7418 40.9333 30.814 41.1719 30.8885 41.4059H30.8862Z" fill="white"/>
<path d="M42.0099 45.7073C42.1705 45.4152 42.3613 45.009 42.5801 44.49C42.8001 43.9709 43.0224 43.4332 43.2493 42.8769C43.4763 42.3206 43.6951 41.7841 43.908 41.2639C44.1198 40.7448 44.306 40.3387 44.4678 40.0466C44.6284 39.7102 44.7855 39.4798 44.9392 39.3553C45.0928 39.2307 45.3453 39.169 45.6956 39.169C45.9296 39.1551 46.1484 39.1656 46.3543 39.2016C46.5592 39.2389 46.7303 39.3075 46.8699 39.41C47.0084 39.5124 47.1073 39.659 47.1667 39.8487C47.2249 40.0384 47.2249 40.2875 47.1667 40.5947C47.0794 40.9753 46.9211 41.4536 46.6953 42.032C46.4684 42.6104 46.1903 43.2284 45.8621 43.8859C45.5327 44.5447 45.1708 45.2139 44.7762 45.8935C44.3817 46.5732 43.9755 47.2028 43.5589 47.78C43.1422 48.3585 42.7326 48.8554 42.3299 49.272C41.9272 49.6887 41.5513 49.9703 41.1999 50.117C40.8484 50.2776 40.4934 50.3695 40.1361 50.3916C39.7777 50.4137 39.4413 50.3777 39.1271 50.2822C38.8129 50.1868 38.5312 50.0297 38.2822 49.8109C38.0331 49.5921 37.8434 49.3139 37.7119 48.9776C37.5513 48.5679 37.4454 48.1443 37.3942 47.7056C37.343 47.2668 37.3104 46.8141 37.2953 46.3451C37.2662 45.5991 37.2767 44.8566 37.3279 44.1175C37.3791 43.3797 37.485 42.6221 37.6456 41.847C37.762 41.3349 37.9749 40.8705 38.2822 40.4539C38.5894 40.0372 38.9991 39.8138 39.5112 39.7847C39.7311 39.7707 39.9534 39.7556 40.1804 39.7405C40.4073 39.7265 40.6226 39.7335 40.8274 39.7626C41.208 39.8359 41.4605 39.9639 41.5839 40.1466C41.7084 40.3294 41.741 40.611 41.6828 40.9916C41.6095 41.5176 41.5222 42.0448 41.4198 42.5708C41.3174 43.0969 41.2301 43.6241 41.1568 44.1501C41.1277 44.3841 41.0986 44.618 41.0695 44.8519C41.0404 45.0858 41.0113 45.3198 40.9822 45.5537C40.924 45.9924 40.9089 46.3032 40.938 46.4859C40.9671 46.6686 41.0334 46.7524 41.1358 46.7384C41.2383 46.7245 41.3663 46.6255 41.5199 46.4428C41.6735 46.2601 41.8376 46.0145 42.0134 45.7073H42.0099Z" fill="white"/>
<path d="M49.9741 45.9709C50.1196 46.3073 50.2883 46.5447 50.4792 46.6844C50.6689 46.824 50.8702 46.8927 51.082 46.8927C51.2939 46.8927 51.5138 46.845 51.7407 46.7507C51.9677 46.6553 52.1981 46.5272 52.4321 46.3666C52.6218 46.2502 52.8056 46.1222 52.9802 45.9826C53.1559 45.8441 53.3387 45.7009 53.5284 45.5543C54.0986 45.1446 54.5665 45.2331 54.9331 45.8173C55.1379 46.0955 55.2403 46.3876 55.2403 46.6948C55.2403 47.0021 55.167 47.3023 55.0204 47.5944C54.8888 47.8435 54.7422 48.0774 54.5816 48.2962C54.421 48.515 54.2383 48.7129 54.0334 48.8886C53.3747 49.4298 52.6474 49.7661 51.8501 49.8976C51.0529 50.0291 50.2848 49.9896 49.547 49.7766C48.808 49.5648 48.1504 49.1993 47.572 48.6791C46.9936 48.1601 46.5956 47.513 46.3768 46.7379C46.0695 45.5089 46.0951 44.3835 46.4536 43.3594C46.812 42.3352 47.4964 41.4647 48.5054 40.7489C48.8708 40.4859 49.2874 40.2741 49.7565 40.1123C50.2243 39.9517 50.7038 39.8784 51.1938 39.8935C51.6837 39.9087 52.1702 40.0216 52.6532 40.2334C53.1362 40.4452 53.5889 40.7932 54.0137 41.2761C54.2325 41.5101 54.3942 41.7777 54.4966 42.0768C54.5991 42.3771 54.6351 42.6727 54.606 42.9648C54.5769 43.2581 54.4745 43.5351 54.2988 43.7981C54.1231 44.0611 53.8519 44.2811 53.4865 44.4568C53.1059 44.6326 52.7253 44.8083 52.3459 44.9829C51.9654 45.1586 51.5848 45.3262 51.2054 45.488C50.8539 45.6486 50.4443 45.8103 49.9764 45.9709H49.9741ZM51.9921 42.8775C51.6989 42.5994 51.4102 42.4493 51.1251 42.4271C50.84 42.405 50.5513 42.4749 50.2581 42.6355C50.0241 42.767 49.8228 42.9287 49.6552 43.1184C49.4865 43.3081 49.4027 43.5723 49.4027 43.9087C49.8705 43.8354 50.3209 43.7225 50.7515 43.5688C51.1833 43.4152 51.5964 43.1848 51.991 42.8775H51.9921Z" fill="white"/>
<path d="M59.6276 41.1209C60.3736 40.4622 61.123 40.0351 61.876 39.8372C62.629 39.6394 63.2947 39.651 63.8731 39.8698C64.4504 40.0886 64.8938 40.5134 65.201 41.1418C65.5083 41.7715 65.5955 42.5756 65.464 43.5556C65.4349 43.8046 65.3802 44.1223 65.2999 44.5099C65.2196 44.8974 65.1102 45.2745 64.9706 45.6399C64.8309 46.0054 64.6599 46.3243 64.455 46.5943C64.2502 46.8654 64.0011 47.0074 63.709 47.0225C62.5685 47.0959 61.8446 46.8654 61.5374 46.3312C61.2301 45.7971 61.2883 44.9743 61.7131 43.8628C61.9331 43.2926 61.9982 42.8724 61.9109 42.6012C61.8237 42.3312 61.6619 42.1916 61.428 42.1846C61.194 42.1776 60.9229 42.294 60.6156 42.5361C60.3084 42.777 60.0454 43.118 59.8254 43.5567C59.5764 44.0397 59.375 44.5436 59.2226 45.0708C59.0701 45.598 58.9048 46.1241 58.7291 46.6501C58.5825 47.118 58.4544 47.5823 58.345 48.0432C58.2356 48.5041 58.1216 48.9684 58.0052 49.4363C57.9179 49.7296 57.7853 49.9518 57.6107 50.1055C57.4349 50.2591 57.2371 50.3615 57.0183 50.4127C56.7995 50.4639 56.5644 50.4709 56.3165 50.4348C56.0675 50.3987 55.8266 50.3359 55.5926 50.2486C55.1539 50.0438 54.8327 49.7435 54.6278 49.349C54.423 48.9545 54.3357 48.5076 54.3648 48.0106C54.38 47.587 54.4091 47.1692 54.4521 46.7595C54.4963 46.3499 54.5697 45.9402 54.6721 45.5305C54.7896 45.0627 54.9095 44.5914 55.034 44.1154C55.1585 43.6405 55.2784 43.168 55.396 42.7002C55.4832 42.4081 55.5566 42.1183 55.6159 41.8331C55.6741 41.548 55.7404 41.2594 55.8138 40.9661C55.8277 40.8788 55.8394 40.7939 55.8464 40.7136C55.8533 40.6333 55.865 40.5495 55.8789 40.461C55.9814 39.9932 56.1455 39.6603 56.3724 39.4625C56.5993 39.2646 56.924 39.1587 57.3488 39.1447C57.8015 39.1157 58.2077 39.2111 58.5662 39.4299C58.9246 39.6487 59.1993 39.9559 59.389 40.3516C59.4332 40.4692 59.4728 40.589 59.51 40.7136C59.5461 40.8381 59.5868 40.9731 59.631 41.1197L59.6276 41.1209Z" fill="white"/>
<path d="M73.122 40.2435C73.4292 40.4775 73.6306 40.7451 73.7248 41.0442C73.8203 41.3445 73.8342 41.6448 73.769 41.9439C73.7027 42.2441 73.5747 42.5258 73.385 42.7888C73.1953 43.0518 72.9788 43.2531 72.7379 43.3916C72.497 43.5313 72.2445 43.593 71.9814 43.5778C71.7184 43.5639 71.4763 43.4242 71.2575 43.1612C71.14 43.0157 70.991 42.883 70.8083 42.7667C70.6256 42.6503 70.4312 42.5688 70.2264 42.5258C69.9331 42.4676 69.6701 42.4676 69.4362 42.5258C69.2023 42.5839 69.0079 42.6724 68.8543 42.7888C68.7007 42.9063 68.5983 43.0483 68.547 43.2171C68.4958 43.3858 68.5145 43.5499 68.6017 43.7105C68.7042 43.9153 68.8648 44.0725 69.0847 44.1819C69.3047 44.2913 69.5014 44.3902 69.6771 44.4775C70.0425 44.6672 70.4045 44.8836 70.7629 45.1245C71.1214 45.3654 71.4612 45.6331 71.7836 45.9252C72.1048 46.2185 72.3946 46.5327 72.6506 46.8691C72.9067 47.2054 73.108 47.5709 73.2535 47.9666C73.5316 48.6986 73.5793 49.4911 73.3966 50.3477C73.2139 51.2031 72.7205 52.0259 71.9151 52.8161C71.4612 53.2549 70.9456 53.5656 70.3684 53.7483C69.79 53.9311 69.2093 53.9927 68.6239 53.9345C68.0385 53.8764 67.4787 53.7076 66.9457 53.4295C66.4115 53.1513 65.9622 52.7707 65.5968 52.2889C65.0999 51.6302 64.8915 51.0134 64.9718 50.435C65.0521 49.8577 65.4432 49.2688 66.1461 48.6683C66.4825 48.3762 66.8188 48.3681 67.1551 48.6462C67.2715 48.7335 67.3925 48.8441 67.5171 48.9756C67.6416 49.1071 67.7661 49.2386 67.8907 49.3701C68.0152 49.5016 68.1432 49.6226 68.2747 49.732C68.4062 49.8414 68.5377 49.9183 68.6692 49.9625C68.9474 50.0498 69.1778 50.0579 69.3605 49.9846C69.5433 49.9113 69.6596 49.7867 69.712 49.611C69.7632 49.4353 69.7516 49.2304 69.6794 48.9965C69.6061 48.7626 69.4595 48.5357 69.2407 48.3169C68.9777 48.0538 68.6739 47.8234 68.3306 47.6256C67.9873 47.4277 67.6463 47.2229 67.3099 47.0111C66.9736 46.7993 66.6594 46.5583 66.3661 46.2872C66.0728 46.0172 65.854 45.6692 65.7074 45.2444C65.591 44.9232 65.5212 44.5717 65.499 44.1912C65.4769 43.8106 65.5025 43.4312 65.5759 43.0506C65.6492 42.6701 65.7621 42.3011 65.9157 41.9427C66.0693 41.5842 66.2625 41.2595 66.4976 40.9663C66.9212 40.4402 67.4158 40.0375 67.9791 39.7594C68.5424 39.4812 69.1278 39.3206 69.7341 39.2764C70.3405 39.2322 70.941 39.295 71.5334 39.4626C72.1257 39.6314 72.6553 39.8909 73.1243 40.2412L73.122 40.2435Z" fill="white"/>
<path d="M77.1362 45.9709C77.2817 46.3073 77.4504 46.5447 77.6413 46.6844C77.831 46.824 78.0323 46.8927 78.2442 46.8927C78.456 46.8927 78.6759 46.845 78.9029 46.7507C79.1298 46.6553 79.3602 46.5272 79.5942 46.3666C79.7839 46.2502 79.9677 46.1222 80.1423 45.9826C80.3181 45.8441 80.5008 45.7009 80.6905 45.5543C81.2607 45.1446 81.7286 45.2331 82.0952 45.8173C82.3 46.0955 82.4024 46.3876 82.4024 46.6948C82.4024 47.0021 82.3291 47.3023 82.1825 47.5944C82.051 47.8435 81.9043 48.0774 81.7437 48.2962C81.5831 48.515 81.4004 48.7129 81.1956 48.8886C80.5368 49.4298 79.8095 49.7661 79.0123 49.8976C78.2151 50.0291 77.4469 49.9896 76.7091 49.7766C75.9701 49.5648 75.3125 49.1993 74.7341 48.6791C74.1557 48.1601 73.7577 47.513 73.5389 46.7379C73.2316 45.5089 73.2572 44.3835 73.6157 43.3594C73.9741 42.3352 74.6585 41.4647 75.6675 40.7489C76.0329 40.4859 76.4496 40.2741 76.9186 40.1123C77.3864 39.9517 77.8659 39.8784 78.3559 39.8935C78.8458 39.9087 79.3323 40.0216 79.8153 40.2334C80.2983 40.4452 80.751 40.7932 81.1758 41.2761C81.3946 41.5101 81.5563 41.7777 81.6588 42.0768C81.7612 42.3771 81.7972 42.6727 81.7681 42.9648C81.7391 43.2581 81.6366 43.5351 81.4609 43.7981C81.2852 44.0611 81.014 44.2811 80.6486 44.4568C80.268 44.6326 79.8874 44.8083 79.508 44.9829C79.1275 45.1586 78.7469 45.3262 78.3675 45.488C78.016 45.6486 77.6064 45.8103 77.1385 45.9709H77.1362ZM79.1542 42.8775C78.861 42.5994 78.5723 42.4493 78.2872 42.4271C78.0021 42.405 77.7135 42.4749 77.4202 42.6355C77.1862 42.767 76.9849 42.9287 76.8173 43.1184C76.6486 43.3081 76.5648 43.5723 76.5648 43.9087C77.0326 43.8354 77.483 43.7225 77.9136 43.5688C78.3454 43.4152 78.7586 43.1848 79.1531 42.8775H79.1542Z" fill="white"/>
<path d="M49.7383 13.9995C52.3731 10.1694 55.1011 7.61018 57.0761 6.89211C57.9582 6.5709 59.342 6.19732 59.9763 4.9695C60.5803 3.79988 60.4209 2.00994 59.3094 0.822863C58.2282 -0.331632 50.9684 -2.71627 49.7394 13.9995H49.7383Z" fill="#FC715D"/>
<path d="M55.334 9.14332C57.6116 9.2469 58.915 9.66587 59.7273 10.3013C60.0893 10.5853 60.6049 11.0648 61.2799 11.0101C61.9235 10.9577 62.6275 10.427 62.8324 9.65656C63.0326 8.90707 62.1562 5.49944 55.334 9.14332Z" fill="#FE39C4"/>
<path d="M20.9654 15.0947C17.6241 19.5486 14.4259 21.3397 12.0017 22.1206C10.9194 22.4698 9.176 22.791 8.10996 24.049C7.28598 25.0208 6.62378 27.6208 7.92957 29.072C8.6197 29.839 9.79515 30.2684 10.7797 30.5023C11.9633 30.784 13.2167 30.5512 14.2048 29.8425C16.3136 28.3307 19.7306 24.4855 20.9654 15.0947Z" fill="#BF3DFB"/>
<path opacity="0.38" d="M8.97017 26.323C9.61492 26.2438 9.74759 25.3652 10.0269 24.7402C10.3179 24.0885 11.2629 23.1435 10.8707 23.1027C9.49854 22.9607 7.06153 26.5557 8.97017 26.323Z" fill="white"/>
<path opacity="0.38" d="M56.7767 2.09341C56.5882 2.84174 55.6595 2.89993 54.9693 3.15946C54.2489 3.42946 53.1177 4.43499 53.141 3.96947C53.2224 2.34363 57.3318 -0.120146 56.7755 2.09341H56.7767Z" fill="white"/>
<path opacity="0.38" d="M61.7755 8.9826C61.3169 9.29916 60.7781 8.88019 60.2753 8.68583C59.7505 8.48333 58.6518 8.48216 58.8857 8.23893C59.7016 7.39052 63.1313 8.04341 61.7755 8.98144V8.9826Z" fill="white"/>
<path d="M9.61586 21.1448C7.18234 20.7793 5.83814 20.187 5.05141 19.42C4.69994 19.0778 4.21114 18.5111 3.47911 18.4936C2.78083 18.4762 1.95336 18.9615 1.62866 19.7575C1.31327 20.5314 1.79741 24.2498 9.61586 21.1459V21.1448Z" fill="#FE39C4"/>
<path opacity="0.38" d="M3.06769 20.7521C3.35631 20.4623 3.91378 20.8068 4.38046 20.9569C4.86693 21.114 5.76888 21.0779 5.64436 21.2956C5.20793 22.0579 2.21346 21.6098 3.06885 20.7521H3.06769Z" fill="white"/>
<defs>
<radialGradient id="paint0_radial_764_4552" cx="0" cy="0" r="1" gradientUnits="userSpaceOnUse" gradientTransform="translate(33.4433 29.428) rotate(13.24) scale(24.3077 12.1539)">
<stop/>
<stop offset="1" stop-color="white" stop-opacity="0"/>
</radialGradient>
<linearGradient id="paint1_linear_764_4552" x1="8.99345" y1="18.0597" x2="69.2038" y2="21.8478" gradientUnits="userSpaceOnUse">
<stop offset="0.01" stop-color="#F408AB"/>
<stop offset="1" stop-color="#970A9B"/>
</linearGradient>
<radialGradient id="paint2_radial_764_4552" cx="0" cy="0" r="1" gradientUnits="userSpaceOnUse" gradientTransform="translate(39.8832 22.5945) rotate(4.38) scale(25.4491 7.97202)">
<stop/>
<stop offset="1" stop-color="white"/>
</radialGradient>
<linearGradient id="paint3_linear_764_4552" x1="63.7537" y1="46.7638" x2="17.3784" y2="0.387332" gradientUnits="userSpaceOnUse">
<stop stop-color="#FF0066"/>
<stop offset="0.09" stop-color="#FF195F"/>
<stop offset="0.33" stop-color="#FF5352"/>
<stop offset="0.54" stop-color="#FF8047"/>
<stop offset="0.73" stop-color="#FFA13F"/>
<stop offset="0.89" stop-color="#FFB53A"/>
<stop offset="1" stop-color="#FFBD39"/>
</linearGradient>
<radialGradient id="paint4_radial_764_4552" cx="0" cy="0" r="1" gradientUnits="userSpaceOnUse" gradientTransform="translate(43.2266 43.4743) rotate(0.43) scale(25.4491 6.89886)">
<stop/>
<stop offset="1" stop-color="white"/>
</radialGradient>
<linearGradient id="paint5_linear_764_4552" x1="0.087431" y1="41.7566" x2="82.9178" y2="51.1438" gradientUnits="userSpaceOnUse">
<stop offset="0.12" stop-color="#069EFC"/>
<stop offset="0.75" stop-color="#00E3B1"/>
</linearGradient>
</defs>
</svg>
