<svg width="1636" height="398" viewBox="0 0 1636 398" fill="none" xmlns="http://www.w3.org/2000/svg">
<mask id="path-1-outside-1_136_409" maskUnits="userSpaceOnUse" x="0" y="0" width="1636" height="398" fill="black">
<rect fill="white" width="1636" height="398"/>
<path d="M103.177 3.45312H122.513V106.363C122.513 138.375 98.6656 161.793 61.9274 161.793C25.1891 161.793 1.34143 138.375 1.34143 106.363V3.45312H20.6774V104.859C20.6774 127.418 36.361 143.746 61.9274 143.746C87.7086 143.746 103.177 127.418 103.177 104.859V3.45312ZM189.424 3.45312V159H170.088V3.45312H189.424ZM301.452 72.8477V89.8203H233.347V72.8477H301.452ZM393.715 159H345.375V3.45312H395.648C440.98 3.45312 467.836 32.6719 467.836 81.0117C467.836 129.566 440.98 159 393.715 159ZM364.711 141.812H392.426C430.668 141.812 448.93 118.824 448.93 81.0117C448.93 43.4141 430.668 20.6406 394.359 20.6406H364.711V141.812ZM509.395 159V3.45312H603.712V20.6406H528.731V72.6328H598.77V89.6055H528.731V141.812H604.786V159H509.395ZM654.509 3.45312L700.271 133.863H701.99L747.966 3.45312H768.377L711.443 159H691.033L634.099 3.45312H654.509ZM802.631 159V3.45312H896.948V20.6406H821.967V72.6328H892.006V89.6055H821.967V141.812H898.022V159H802.631ZM940.656 159V3.45312H959.991V141.812H1032.18V159H940.656ZM1196.41 81.2266C1196.41 130.426 1167.41 161.148 1127.66 161.148C1087.7 161.148 1058.91 130.426 1058.91 81.2266C1058.91 32.0273 1087.7 1.30469 1127.66 1.30469C1167.41 1.30469 1196.41 32.0273 1196.41 81.2266ZM1177.72 81.2266C1177.72 41.0508 1155.81 19.3516 1127.66 19.3516C1099.52 19.3516 1077.61 41.0508 1077.61 81.2266C1077.61 121.402 1099.52 143.102 1127.66 143.102C1155.81 143.102 1177.72 121.402 1177.72 81.2266ZM1237.97 159V3.45312H1290.83C1327.35 3.45312 1343.89 25.1523 1343.89 52.8672C1343.89 80.3672 1327.35 102.496 1291.04 102.496H1257.31V159H1237.97ZM1257.31 85.3086H1290.18C1314.89 85.3086 1324.77 71.3438 1324.77 52.8672C1324.77 34.1758 1314.89 20.6406 1289.97 20.6406H1257.31V85.3086ZM1384.16 159V3.45312H1478.48V20.6406H1403.5V72.6328H1473.54V89.6055H1403.5V141.812H1479.55V159H1384.16ZM1522.19 159V3.45312H1575.04C1611.56 3.45312 1628.1 23.6484 1628.1 51.3633C1628.1 71.8809 1618.87 88.1016 1599.1 94.9766L1634.12 159H1611.56L1579.12 98.4141L1575.25 98.6289H1541.52V159H1522.19ZM1541.52 81.0117H1574.39C1599.1 81.0117 1608.98 69.8398 1608.98 51.3633C1608.98 32.6719 1599.1 20.6406 1574.18 20.6406H1541.52V81.0117ZM211.433 394V238.453H305.105V255.641H230.769V307.633H298.015V324.605H230.769V394H211.433ZM347.094 394V238.453H399.945C436.469 238.453 453.012 258.648 453.012 286.363C453.012 306.881 443.773 323.102 424.008 329.977L459.027 394H436.469L404.027 333.414L400.16 333.629H366.43V394H347.094ZM366.43 316.012H399.301C424.008 316.012 433.891 304.84 433.891 286.363C433.891 267.672 424.008 255.641 399.086 255.641H366.43V316.012ZM625.626 316.227C625.626 365.426 596.622 396.148 556.876 396.148C516.915 396.148 488.126 365.426 488.126 316.227C488.126 267.027 516.915 236.305 556.876 236.305C596.622 236.305 625.626 267.027 625.626 316.227ZM606.934 316.227C606.934 276.051 585.02 254.352 556.876 254.352C528.731 254.352 506.817 276.051 506.817 316.227C506.817 356.402 528.731 378.102 556.876 378.102C585.02 378.102 606.934 356.402 606.934 316.227ZM790.72 238.453V394H772.244L688.025 272.828H686.521V394H667.185V238.453H685.877L770.095 359.84H771.599V238.453H790.72ZM829.702 255.641V238.453H947.006V255.641H898.237V394H878.686V255.641H829.702ZM985.987 394V238.453H1080.3V255.641H1005.32V307.633H1075.36V324.605H1005.32V376.812H1081.38V394H985.987ZM1247.55 238.453V394H1229.07L1144.85 272.828H1143.35V394H1124.01V238.453H1142.7L1226.92 359.84H1228.43V238.453H1247.55ZM1343.46 394H1295.12V238.453H1345.4C1390.73 238.453 1417.58 267.672 1417.58 316.012C1417.58 364.566 1390.73 394 1343.46 394ZM1314.46 376.812H1342.17C1380.41 376.812 1398.68 353.824 1398.68 316.012C1398.68 278.414 1380.41 255.641 1344.11 255.641H1314.46V376.812Z"/>
</mask>
<path d="M103.177 3.45312V2.45312H102.177V3.45312H103.177ZM122.513 3.45312H123.513V2.45312H122.513V3.45312ZM1.34143 3.45312V2.45312H0.341431V3.45312H1.34143ZM20.6774 3.45312H21.6774V2.45312H20.6774V3.45312ZM103.177 4.45312H122.513V2.45312H103.177V4.45312ZM121.513 3.45312V106.363H123.513V3.45312H121.513ZM121.513 106.363C121.513 122.111 115.653 135.697 105.315 145.352C94.9724 155.01 80.0822 160.793 61.9274 160.793V162.793C80.5109 162.793 95.9136 156.867 106.68 146.813C117.45 136.756 123.513 122.628 123.513 106.363H121.513ZM61.9274 160.793C43.7726 160.793 28.8824 155.01 18.5401 145.352C8.20152 135.697 2.34143 122.111 2.34143 106.363H0.341431C0.341431 122.628 6.40517 136.756 17.175 146.813C27.9411 156.867 43.3439 162.793 61.9274 162.793V160.793ZM2.34143 106.363V3.45312H0.341431V106.363H2.34143ZM1.34143 4.45312H20.6774V2.45312H1.34143V4.45312ZM19.6774 3.45312V104.859H21.6774V3.45312H19.6774ZM19.6774 104.859C19.6774 116.377 23.6857 126.368 31.0188 133.48C38.351 140.591 48.9276 144.746 61.9274 144.746V142.746C49.3607 142.746 39.3123 138.737 32.4112 132.044C25.5109 125.352 21.6774 115.901 21.6774 104.859H19.6774ZM61.9274 144.746C75.0327 144.746 85.6109 140.592 92.9179 133.479C100.225 126.365 104.177 116.373 104.177 104.859H102.177C102.177 115.905 98.395 125.356 91.5228 132.046C84.6501 138.736 74.6033 142.746 61.9274 142.746V144.746ZM104.177 104.859V3.45312H102.177V104.859H104.177ZM189.424 3.45312H190.424V2.45312H189.424V3.45312ZM189.424 159V160H190.424V159H189.424ZM170.088 159H169.088V160H170.088V159ZM170.088 3.45312V2.45312H169.088V3.45312H170.088ZM188.424 3.45312V159H190.424V3.45312H188.424ZM189.424 158H170.088V160H189.424V158ZM171.088 159V3.45312H169.088V159H171.088ZM170.088 4.45312H189.424V2.45312H170.088V4.45312ZM301.452 72.8477H302.452V71.8477H301.452V72.8477ZM301.452 89.8203V90.8203H302.452V89.8203H301.452ZM233.347 89.8203H232.347V90.8203H233.347V89.8203ZM233.347 72.8477V71.8477H232.347V72.8477H233.347ZM300.452 72.8477V89.8203H302.452V72.8477H300.452ZM301.452 88.8203H233.347V90.8203H301.452V88.8203ZM234.347 89.8203V72.8477H232.347V89.8203H234.347ZM233.347 73.8477H301.452V71.8477H233.347V73.8477ZM345.375 159H344.375V160H345.375V159ZM345.375 3.45312V2.45312H344.375V3.45312H345.375ZM364.711 141.812H363.711V142.812H364.711V141.812ZM364.711 20.6406V19.6406H363.711V20.6406H364.711ZM393.715 158H345.375V160H393.715V158ZM346.375 159V3.45312H344.375V159H346.375ZM345.375 4.45312H395.648V2.45312H345.375V4.45312ZM395.648 4.45312C418.092 4.45312 435.853 11.6797 448.009 24.785C460.174 37.9002 466.836 57.0215 466.836 81.0117H468.836C468.836 56.6621 462.07 37.0041 449.475 23.4249C436.87 9.83593 418.537 2.45312 395.648 2.45312V4.45312ZM466.836 81.0117C466.836 105.11 460.173 124.335 447.771 137.529C435.378 150.714 417.135 158 393.715 158V160C417.56 160 436.378 152.57 449.229 138.899C462.071 125.237 468.836 105.468 468.836 81.0117H466.836ZM364.711 142.812H392.426V140.812H364.711V142.812ZM392.426 142.812C411.752 142.812 426.182 136.997 435.765 126.258C445.33 115.538 449.93 100.064 449.93 81.0117H447.93C447.93 99.7722 443.399 114.698 434.272 124.926C425.164 135.134 411.342 140.812 392.426 140.812V142.812ZM449.93 81.0117C449.93 62.0656 445.329 46.7042 436.013 36.0681C426.677 25.4104 412.731 19.6406 394.359 19.6406V21.6406C412.296 21.6406 425.636 27.2575 434.508 37.386C443.399 47.536 447.93 62.3602 447.93 81.0117H449.93ZM394.359 19.6406H364.711V21.6406H394.359V19.6406ZM363.711 20.6406V141.812H365.711V20.6406H363.711ZM509.395 159H508.395V160H509.395V159ZM509.395 3.45312V2.45312H508.395V3.45312H509.395ZM603.712 3.45312H604.712V2.45312H603.712V3.45312ZM603.712 20.6406V21.6406H604.712V20.6406H603.712ZM528.731 20.6406V19.6406H527.731V20.6406H528.731ZM528.731 72.6328H527.731V73.6328H528.731V72.6328ZM598.77 72.6328H599.77V71.6328H598.77V72.6328ZM598.77 89.6055V90.6055H599.77V89.6055H598.77ZM528.731 89.6055V88.6055H527.731V89.6055H528.731ZM528.731 141.812H527.731V142.812H528.731V141.812ZM604.786 141.812H605.786V140.812H604.786V141.812ZM604.786 159V160H605.786V159H604.786ZM510.395 159V3.45312H508.395V159H510.395ZM509.395 4.45312H603.712V2.45312H509.395V4.45312ZM602.712 3.45312V20.6406H604.712V3.45312H602.712ZM603.712 19.6406H528.731V21.6406H603.712V19.6406ZM527.731 20.6406V72.6328H529.731V20.6406H527.731ZM528.731 73.6328H598.77V71.6328H528.731V73.6328ZM597.77 72.6328V89.6055H599.77V72.6328H597.77ZM598.77 88.6055H528.731V90.6055H598.77V88.6055ZM527.731 89.6055V141.812H529.731V89.6055H527.731ZM528.731 142.812H604.786V140.812H528.731V142.812ZM603.786 141.812V159H605.786V141.812H603.786ZM604.786 158H509.395V160H604.786V158ZM654.509 3.45312L655.453 3.12201L655.218 2.45312H654.509V3.45312ZM700.271 133.863L699.328 134.194L699.562 134.863H700.271V133.863ZM701.99 133.863V134.863H702.698L702.933 134.196L701.99 133.863ZM747.966 3.45312V2.45312H747.259L747.023 3.12063L747.966 3.45312ZM768.377 3.45312L769.316 3.79684L769.807 2.45312H768.377V3.45312ZM711.443 159V160H712.142L712.382 159.344L711.443 159ZM691.033 159L690.094 159.344L690.334 160H691.033V159ZM634.099 3.45312V2.45312H632.668L633.16 3.79684L634.099 3.45312ZM653.566 3.78424L699.328 134.194L701.215 133.532L655.453 3.12201L653.566 3.78424ZM700.271 134.863H701.99V132.863H700.271V134.863ZM702.933 134.196L748.91 3.78562L747.023 3.12063L701.047 133.531L702.933 134.196ZM747.966 4.45312H768.377V2.45312H747.966V4.45312ZM767.438 3.10941L710.504 158.656L712.382 159.344L769.316 3.79684L767.438 3.10941ZM711.443 158H691.033V160H711.443V158ZM691.972 158.656L635.038 3.10941L633.16 3.79684L690.094 159.344L691.972 158.656ZM634.099 4.45312H654.509V2.45312H634.099V4.45312ZM802.631 159H801.631V160H802.631V159ZM802.631 3.45312V2.45312H801.631V3.45312H802.631ZM896.948 3.45312H897.948V2.45312H896.948V3.45312ZM896.948 20.6406V21.6406H897.948V20.6406H896.948ZM821.967 20.6406V19.6406H820.967V20.6406H821.967ZM821.967 72.6328H820.967V73.6328H821.967V72.6328ZM892.006 72.6328H893.006V71.6328H892.006V72.6328ZM892.006 89.6055V90.6055H893.006V89.6055H892.006ZM821.967 89.6055V88.6055H820.967V89.6055H821.967ZM821.967 141.812H820.967V142.812H821.967V141.812ZM898.022 141.812H899.022V140.812H898.022V141.812ZM898.022 159V160H899.022V159H898.022ZM803.631 159V3.45312H801.631V159H803.631ZM802.631 4.45312H896.948V2.45312H802.631V4.45312ZM895.948 3.45312V20.6406H897.948V3.45312H895.948ZM896.948 19.6406H821.967V21.6406H896.948V19.6406ZM820.967 20.6406V72.6328H822.967V20.6406H820.967ZM821.967 73.6328H892.006V71.6328H821.967V73.6328ZM891.006 72.6328V89.6055H893.006V72.6328H891.006ZM892.006 88.6055H821.967V90.6055H892.006V88.6055ZM820.967 89.6055V141.812H822.967V89.6055H820.967ZM821.967 142.812H898.022V140.812H821.967V142.812ZM897.022 141.812V159H899.022V141.812H897.022ZM898.022 158H802.631V160H898.022V158ZM940.656 159H939.656V160H940.656V159ZM940.656 3.45312V2.45312H939.656V3.45312H940.656ZM959.991 3.45312H960.991V2.45312H959.991V3.45312ZM959.991 141.812H958.991V142.812H959.991V141.812ZM1032.18 141.812H1033.18V140.812H1032.18V141.812ZM1032.18 159V160H1033.18V159H1032.18ZM941.656 159V3.45312H939.656V159H941.656ZM940.656 4.45312H959.991V2.45312H940.656V4.45312ZM958.991 3.45312V141.812H960.991V3.45312H958.991ZM959.991 142.812H1032.18V140.812H959.991V142.812ZM1031.18 141.812V159H1033.18V141.812H1031.18ZM1032.18 158H940.656V160H1032.18V158ZM1195.41 81.2266C1195.41 105.632 1188.22 125.361 1176.19 138.975C1164.17 152.58 1147.26 160.148 1127.66 160.148V162.148C1147.81 162.148 1165.27 154.355 1177.69 140.299C1190.1 126.252 1197.41 106.021 1197.41 81.2266H1195.41ZM1127.66 160.148C1107.95 160.148 1091.05 152.579 1079.05 138.976C1067.05 125.363 1059.91 105.634 1059.91 81.2266H1057.91C1057.91 106.019 1065.17 126.25 1077.55 140.298C1089.95 154.356 1107.41 162.148 1127.66 162.148V160.148ZM1059.91 81.2266C1059.91 56.8194 1067.05 37.0901 1079.05 23.4772C1091.05 9.87363 1107.95 2.30469 1127.66 2.30469V0.304688C1107.41 0.304688 1089.95 8.09707 1077.55 22.1546C1065.17 36.2028 1057.91 56.4345 1057.91 81.2266H1059.91ZM1127.66 2.30469C1147.26 2.30469 1164.17 9.87288 1176.19 23.478C1188.22 37.0918 1195.41 56.8213 1195.41 81.2266H1197.41C1197.41 56.4326 1190.1 36.2011 1177.69 22.1538C1165.27 8.09782 1147.81 0.304688 1127.66 0.304688V2.30469ZM1178.72 81.2266C1178.72 60.9616 1173.19 45.2412 1164.01 34.5706C1154.81 23.8889 1142.01 18.3516 1127.66 18.3516V20.3516C1141.46 20.3516 1153.7 25.6639 1162.49 35.8757C1171.29 46.0987 1176.72 61.3157 1176.72 81.2266H1178.72ZM1127.66 18.3516C1113.32 18.3516 1100.52 23.8889 1091.32 34.5706C1082.13 45.2412 1076.61 60.9616 1076.61 81.2266H1078.61C1078.61 61.3157 1084.03 46.0987 1092.84 35.8757C1101.63 25.6639 1113.86 20.3516 1127.66 20.3516V18.3516ZM1076.61 81.2266C1076.61 101.491 1082.13 117.212 1091.32 127.883C1100.52 138.564 1113.32 144.102 1127.66 144.102V142.102C1113.86 142.102 1101.63 136.789 1092.84 126.577C1084.03 116.354 1078.61 101.137 1078.61 81.2266H1076.61ZM1127.66 144.102C1142.01 144.102 1154.81 138.564 1164.01 127.883C1173.19 117.212 1178.72 101.491 1178.72 81.2266H1176.72C1176.72 101.137 1171.29 116.354 1162.49 126.577C1153.7 136.789 1141.46 142.102 1127.66 142.102V144.102ZM1237.97 159H1236.97V160H1237.97V159ZM1237.97 3.45312V2.45312H1236.97V3.45312H1237.97ZM1257.31 102.496V101.496H1256.31V102.496H1257.31ZM1257.31 159V160H1258.31V159H1257.31ZM1257.31 85.3086H1256.31V86.3086H1257.31V85.3086ZM1257.31 20.6406V19.6406H1256.31V20.6406H1257.31ZM1238.97 159V3.45312H1236.97V159H1238.97ZM1237.97 4.45312H1290.83V2.45312H1237.97V4.45312ZM1290.83 4.45312C1308.89 4.45312 1321.87 9.81322 1330.34 18.4666C1338.82 27.1262 1342.89 39.2047 1342.89 52.8672H1344.89C1344.89 38.8148 1340.7 26.1863 1331.77 17.0676C1322.84 7.94263 1309.29 2.45312 1290.83 2.45312V4.45312ZM1342.89 52.8672C1342.89 66.4211 1338.82 78.5568 1330.36 87.299C1321.92 96.033 1308.99 101.496 1291.04 101.496V103.496C1309.4 103.496 1322.9 97.8947 1331.8 88.6893C1340.69 79.4921 1344.89 66.8133 1344.89 52.8672H1342.89ZM1291.04 101.496H1257.31V103.496H1291.04V101.496ZM1256.31 102.496V159H1258.31V102.496H1256.31ZM1257.31 158H1237.97V160H1257.31V158ZM1257.31 86.3086H1290.18V84.3086H1257.31V86.3086ZM1290.18 86.3086C1302.72 86.3086 1311.66 82.76 1317.46 76.7085C1323.25 70.6658 1325.77 62.274 1325.77 52.8672H1323.77C1323.77 61.9369 1321.35 69.7659 1316.02 75.3247C1310.7 80.8748 1302.35 84.3086 1290.18 84.3086V86.3086ZM1325.77 52.8672C1325.77 43.3549 1323.25 35.0112 1317.43 29.046C1311.6 23.0755 1302.6 19.6406 1289.97 19.6406V21.6406C1302.25 21.6406 1310.66 24.9734 1316 30.4433C1321.34 35.9185 1323.77 43.688 1323.77 52.8672H1325.77ZM1289.97 19.6406H1257.31V21.6406H1289.97V19.6406ZM1256.31 20.6406V85.3086H1258.31V20.6406H1256.31ZM1384.16 159H1383.16V160H1384.16V159ZM1384.16 3.45312V2.45312H1383.16V3.45312H1384.16ZM1478.48 3.45312H1479.48V2.45312H1478.48V3.45312ZM1478.48 20.6406V21.6406H1479.48V20.6406H1478.48ZM1403.5 20.6406V19.6406H1402.5V20.6406H1403.5ZM1403.5 72.6328H1402.5V73.6328H1403.5V72.6328ZM1473.54 72.6328H1474.54V71.6328H1473.54V72.6328ZM1473.54 89.6055V90.6055H1474.54V89.6055H1473.54ZM1403.5 89.6055V88.6055H1402.5V89.6055H1403.5ZM1403.5 141.812H1402.5V142.812H1403.5V141.812ZM1479.55 141.812H1480.55V140.812H1479.55V141.812ZM1479.55 159V160H1480.55V159H1479.55ZM1385.16 159V3.45312H1383.16V159H1385.16ZM1384.16 4.45312H1478.48V2.45312H1384.16V4.45312ZM1477.48 3.45312V20.6406H1479.48V3.45312H1477.48ZM1478.48 19.6406H1403.5V21.6406H1478.48V19.6406ZM1402.5 20.6406V72.6328H1404.5V20.6406H1402.5ZM1403.5 73.6328H1473.54V71.6328H1403.5V73.6328ZM1472.54 72.6328V89.6055H1474.54V72.6328H1472.54ZM1473.54 88.6055H1403.5V90.6055H1473.54V88.6055ZM1402.5 89.6055V141.812H1404.5V89.6055H1402.5ZM1403.5 142.812H1479.55V140.812H1403.5V142.812ZM1478.55 141.812V159H1480.55V141.812H1478.55ZM1479.55 158H1384.16V160H1479.55V158ZM1522.19 159H1521.19V160H1522.19V159ZM1522.19 3.45312V2.45312H1521.19V3.45312H1522.19ZM1599.1 94.9766L1598.77 94.0321L1597.66 94.4201L1598.22 95.4565L1599.1 94.9766ZM1634.12 159V160H1635.81L1635 158.52L1634.12 159ZM1611.56 159L1610.68 159.472L1610.96 160H1611.56V159ZM1579.12 98.4141L1580 97.942L1579.7 97.3802L1579.06 97.4156L1579.12 98.4141ZM1575.25 98.6289V99.6289H1575.28L1575.31 99.6274L1575.25 98.6289ZM1541.52 98.6289V97.6289H1540.52V98.6289H1541.52ZM1541.52 159V160H1542.52V159H1541.52ZM1541.52 81.0117H1540.52V82.0117H1541.52V81.0117ZM1541.52 20.6406V19.6406H1540.52V20.6406H1541.52ZM1523.19 159V3.45312H1521.19V159H1523.19ZM1522.19 4.45312H1575.04V2.45312H1522.19V4.45312ZM1575.04 4.45312C1593.12 4.45312 1606.1 9.44896 1614.57 17.7299C1623.03 26.0101 1627.1 37.7032 1627.1 51.3633H1629.1C1629.1 37.3086 1624.91 25.0465 1615.97 16.3004C1607.03 7.55494 1593.48 2.45312 1575.04 2.45312V4.45312ZM1627.1 51.3633C1627.1 61.4745 1624.83 70.4619 1620.17 77.7474C1615.52 85.0233 1608.46 90.6626 1598.77 94.0321L1599.43 95.9211C1609.51 92.4155 1616.95 86.507 1621.86 78.8244C1626.76 71.1514 1629.1 61.7696 1629.1 51.3633H1627.1ZM1598.22 95.4565L1633.24 159.48L1635 158.52L1599.98 94.4967L1598.22 95.4565ZM1634.12 158H1611.56V160H1634.12V158ZM1612.44 158.528L1580 97.942L1578.24 98.8861L1610.68 159.472L1612.44 158.528ZM1579.06 97.4156L1575.2 97.6304L1575.31 99.6274L1579.17 99.4125L1579.06 97.4156ZM1575.25 97.6289H1541.52V99.6289H1575.25V97.6289ZM1540.52 98.6289V159H1542.52V98.6289H1540.52ZM1541.52 158H1522.19V160H1541.52V158ZM1541.52 82.0117H1574.39V80.0117H1541.52V82.0117ZM1574.39 82.0117C1586.88 82.0117 1595.81 79.1915 1601.63 73.8529C1607.46 68.4988 1609.98 60.7742 1609.98 51.3633H1607.98C1607.98 60.429 1605.56 67.5285 1600.28 72.3795C1594.97 77.246 1586.62 80.0117 1574.39 80.0117V82.0117ZM1609.98 51.3633C1609.98 41.849 1607.47 33.8647 1601.62 28.2701C1595.78 22.6832 1586.78 19.6406 1574.18 19.6406V21.6406C1586.49 21.6406 1594.9 24.6137 1600.23 29.7152C1605.56 34.8092 1607.98 42.1861 1607.98 51.3633H1609.98ZM1574.18 19.6406H1541.52V21.6406H1574.18V19.6406ZM1540.52 20.6406V81.0117H1542.52V20.6406H1540.52ZM211.433 394H210.433V395H211.433V394ZM211.433 238.453V237.453H210.433V238.453H211.433ZM305.105 238.453H306.105V237.453H305.105V238.453ZM305.105 255.641V256.641H306.105V255.641H305.105ZM230.769 255.641V254.641H229.769V255.641H230.769ZM230.769 307.633H229.769V308.633H230.769V307.633ZM298.015 307.633H299.015V306.633H298.015V307.633ZM298.015 324.605V325.605H299.015V324.605H298.015ZM230.769 324.605V323.605H229.769V324.605H230.769ZM230.769 394V395H231.769V394H230.769ZM212.433 394V238.453H210.433V394H212.433ZM211.433 239.453H305.105V237.453H211.433V239.453ZM304.105 238.453V255.641H306.105V238.453H304.105ZM305.105 254.641H230.769V256.641H305.105V254.641ZM229.769 255.641V307.633H231.769V255.641H229.769ZM230.769 308.633H298.015V306.633H230.769V308.633ZM297.015 307.633V324.605H299.015V307.633H297.015ZM298.015 323.605H230.769V325.605H298.015V323.605ZM229.769 324.605V394H231.769V324.605H229.769ZM230.769 393H211.433V395H230.769V393ZM347.094 394H346.094V395H347.094V394ZM347.094 238.453V237.453H346.094V238.453H347.094ZM424.008 329.977L423.679 329.032L422.564 329.42L423.13 330.456L424.008 329.977ZM459.027 394V395H460.714L459.905 393.52L459.027 394ZM436.469 394L435.587 394.472L435.87 395H436.469V394ZM404.027 333.414L404.909 332.942L404.608 332.38L403.972 332.416L404.027 333.414ZM400.16 333.629V334.629H400.188L400.216 334.627L400.16 333.629ZM366.43 333.629V332.629H365.43V333.629H366.43ZM366.43 394V395H367.43V394H366.43ZM366.43 316.012H365.43V317.012H366.43V316.012ZM366.43 255.641V254.641H365.43V255.641H366.43ZM348.094 394V238.453H346.094V394H348.094ZM347.094 239.453H399.945V237.453H347.094V239.453ZM399.945 239.453C418.026 239.453 431.012 244.449 439.475 252.73C447.939 261.01 452.012 272.703 452.012 286.363H454.012C454.012 272.309 449.813 260.047 440.874 251.3C431.936 242.555 418.388 237.453 399.945 237.453V239.453ZM452.012 286.363C452.012 296.475 449.736 305.462 445.079 312.747C440.429 320.023 433.366 325.663 423.679 329.032L424.336 330.921C434.415 327.415 441.854 321.507 446.764 313.824C451.669 306.151 454.012 296.77 454.012 286.363H452.012ZM423.13 330.456L458.15 394.48L459.905 393.52L424.885 329.497L423.13 330.456ZM459.027 393H436.469V395H459.027V393ZM437.35 393.528L404.909 332.942L403.146 333.886L435.587 394.472L437.35 393.528ZM403.972 332.416L400.105 332.63L400.216 334.627L404.083 334.413L403.972 332.416ZM400.16 332.629H366.43V334.629H400.16V332.629ZM365.43 333.629V394H367.43V333.629H365.43ZM366.43 393H347.094V395H366.43V393ZM366.43 317.012H399.301V315.012H366.43V317.012ZM399.301 317.012C411.785 317.012 420.721 314.192 426.537 308.853C432.37 303.499 434.891 295.774 434.891 286.363H432.891C432.891 295.429 430.47 302.529 425.185 307.379C419.883 312.246 411.524 315.012 399.301 315.012V317.012ZM434.891 286.363C434.891 276.849 432.373 268.865 426.525 263.27C420.686 257.683 411.693 254.641 399.086 254.641V256.641C411.401 256.641 419.81 259.614 425.143 264.715C430.467 269.809 432.891 277.186 432.891 286.363H434.891ZM399.086 254.641H366.43V256.641H399.086V254.641ZM365.43 255.641V316.012H367.43V255.641H365.43ZM624.626 316.227C624.626 340.632 617.434 360.361 605.406 373.975C593.386 387.58 576.477 395.148 556.876 395.148V397.148C577.021 397.148 594.487 389.355 606.905 375.299C619.316 361.252 626.626 341.021 626.626 316.227H624.626ZM556.876 395.148C537.166 395.148 520.258 387.579 508.266 373.976C496.265 360.363 489.126 340.634 489.126 316.227H487.126C487.126 341.019 494.381 361.25 506.765 375.298C519.158 389.356 536.624 397.148 556.876 397.148V395.148ZM489.126 316.227C489.126 291.819 496.265 272.09 508.266 258.477C520.258 244.874 537.166 237.305 556.876 237.305V235.305C536.624 235.305 519.158 243.097 506.765 257.155C494.381 271.203 487.126 291.435 487.126 316.227H489.126ZM556.876 237.305C576.477 237.305 593.386 244.873 605.406 258.478C617.434 272.092 624.626 291.821 624.626 316.227H626.626C626.626 291.433 619.316 271.201 606.905 257.154C594.487 243.098 577.021 235.305 556.876 235.305V237.305ZM607.934 316.227C607.934 295.962 602.406 280.241 593.217 269.571C584.018 258.889 571.22 253.352 556.876 253.352V255.352C570.676 255.352 582.907 260.664 591.702 270.876C600.505 281.099 605.934 296.316 605.934 316.227H607.934ZM556.876 253.352C542.532 253.352 529.733 258.889 520.535 269.571C511.345 280.241 505.817 295.962 505.817 316.227H507.817C507.817 296.316 513.246 281.099 522.05 270.876C530.844 260.664 543.075 255.352 556.876 255.352V253.352ZM505.817 316.227C505.817 336.491 511.345 352.212 520.535 362.883C529.733 373.564 542.532 379.102 556.876 379.102V377.102C543.075 377.102 530.844 371.789 522.05 361.577C513.246 351.354 507.817 336.137 507.817 316.227H505.817ZM556.876 379.102C571.22 379.102 584.018 373.564 593.217 362.883C602.406 352.212 607.934 336.491 607.934 316.227H605.934C605.934 336.137 600.505 351.354 591.702 361.577C582.907 371.789 570.676 377.102 556.876 377.102V379.102ZM790.72 238.453H791.72V237.453H790.72V238.453ZM790.72 394V395H791.72V394H790.72ZM772.244 394L771.423 394.571L771.721 395H772.244V394ZM688.025 272.828L688.846 272.257L688.548 271.828H688.025V272.828ZM686.521 272.828V271.828H685.521V272.828H686.521ZM686.521 394V395H687.521V394H686.521ZM667.185 394H666.185V395H667.185V394ZM667.185 238.453V237.453H666.185V238.453H667.185ZM685.877 238.453L686.698 237.883L686.4 237.453H685.877V238.453ZM770.095 359.84L769.274 360.41L769.572 360.84H770.095V359.84ZM771.599 359.84V360.84H772.599V359.84H771.599ZM771.599 238.453V237.453H770.599V238.453H771.599ZM789.72 238.453V394H791.72V238.453H789.72ZM790.72 393H772.244V395H790.72V393ZM773.065 393.429L688.846 272.257L687.204 273.399L771.423 394.571L773.065 393.429ZM688.025 271.828H686.521V273.828H688.025V271.828ZM685.521 272.828V394H687.521V272.828H685.521ZM686.521 393H667.185V395H686.521V393ZM668.185 394V238.453H666.185V394H668.185ZM667.185 239.453H685.877V237.453H667.185V239.453ZM685.055 239.023L769.274 360.41L770.917 359.27L686.698 237.883L685.055 239.023ZM770.095 360.84H771.599V358.84H770.095V360.84ZM772.599 359.84V238.453H770.599V359.84H772.599ZM771.599 239.453H790.72V237.453H771.599V239.453ZM829.702 255.641H828.702V256.641H829.702V255.641ZM829.702 238.453V237.453H828.702V238.453H829.702ZM947.006 238.453H948.006V237.453H947.006V238.453ZM947.006 255.641V256.641H948.006V255.641H947.006ZM898.237 255.641V254.641H897.237V255.641H898.237ZM898.237 394V395H899.237V394H898.237ZM878.686 394H877.686V395H878.686V394ZM878.686 255.641H879.686V254.641H878.686V255.641ZM830.702 255.641V238.453H828.702V255.641H830.702ZM829.702 239.453H947.006V237.453H829.702V239.453ZM946.006 238.453V255.641H948.006V238.453H946.006ZM947.006 254.641H898.237V256.641H947.006V254.641ZM897.237 255.641V394H899.237V255.641H897.237ZM898.237 393H878.686V395H898.237V393ZM879.686 394V255.641H877.686V394H879.686ZM878.686 254.641H829.702V256.641H878.686V254.641ZM985.987 394H984.987V395H985.987V394ZM985.987 238.453V237.453H984.987V238.453H985.987ZM1080.3 238.453H1081.3V237.453H1080.3V238.453ZM1080.3 255.641V256.641H1081.3V255.641H1080.3ZM1005.32 255.641V254.641H1004.32V255.641H1005.32ZM1005.32 307.633H1004.32V308.633H1005.32V307.633ZM1075.36 307.633H1076.36V306.633H1075.36V307.633ZM1075.36 324.605V325.605H1076.36V324.605H1075.36ZM1005.32 324.605V323.605H1004.32V324.605H1005.32ZM1005.32 376.812H1004.32V377.812H1005.32V376.812ZM1081.38 376.812H1082.38V375.812H1081.38V376.812ZM1081.38 394V395H1082.38V394H1081.38ZM986.987 394V238.453H984.987V394H986.987ZM985.987 239.453H1080.3V237.453H985.987V239.453ZM1079.3 238.453V255.641H1081.3V238.453H1079.3ZM1080.3 254.641H1005.32V256.641H1080.3V254.641ZM1004.32 255.641V307.633H1006.32V255.641H1004.32ZM1005.32 308.633H1075.36V306.633H1005.32V308.633ZM1074.36 307.633V324.605H1076.36V307.633H1074.36ZM1075.36 323.605H1005.32V325.605H1075.36V323.605ZM1004.32 324.605V376.812H1006.32V324.605H1004.32ZM1005.32 377.812H1081.38V375.812H1005.32V377.812ZM1080.38 376.812V394H1082.38V376.812H1080.38ZM1081.38 393H985.987V395H1081.38V393ZM1247.55 238.453H1248.55V237.453H1247.55V238.453ZM1247.55 394V395H1248.55V394H1247.55ZM1229.07 394L1228.25 394.571L1228.55 395H1229.07V394ZM1144.85 272.828L1145.67 272.257L1145.37 271.828H1144.85V272.828ZM1143.35 272.828V271.828H1142.35V272.828H1143.35ZM1143.35 394V395H1144.35V394H1143.35ZM1124.01 394H1123.01V395H1124.01V394ZM1124.01 238.453V237.453H1123.01V238.453H1124.01ZM1142.7 238.453L1143.52 237.883L1143.23 237.453H1142.7V238.453ZM1226.92 359.84L1226.1 360.41L1226.4 360.84H1226.92V359.84ZM1228.43 359.84V360.84H1229.43V359.84H1228.43ZM1228.43 238.453V237.453H1227.43V238.453H1228.43ZM1246.55 238.453V394H1248.55V238.453H1246.55ZM1247.55 393H1229.07V395H1247.55V393ZM1229.89 393.429L1145.67 272.257L1144.03 273.399L1228.25 394.571L1229.89 393.429ZM1144.85 271.828H1143.35V273.828H1144.85V271.828ZM1142.35 272.828V394H1144.35V272.828H1142.35ZM1143.35 393H1124.01V395H1143.35V393ZM1125.01 394V238.453H1123.01V394H1125.01ZM1124.01 239.453H1142.7V237.453H1124.01V239.453ZM1141.88 239.023L1226.1 360.41L1227.74 359.27L1143.52 237.883L1141.88 239.023ZM1226.92 360.84H1228.43V358.84H1226.92V360.84ZM1229.43 359.84V238.453H1227.43V359.84H1229.43ZM1228.43 239.453H1247.55V237.453H1228.43V239.453ZM1295.12 394H1294.12V395H1295.12V394ZM1295.12 238.453V237.453H1294.12V238.453H1295.12ZM1314.46 376.812H1313.46V377.812H1314.46V376.812ZM1314.46 255.641V254.641H1313.46V255.641H1314.46ZM1343.46 393H1295.12V395H1343.46V393ZM1296.12 394V238.453H1294.12V394H1296.12ZM1295.12 239.453H1345.4V237.453H1295.12V239.453ZM1345.4 239.453C1367.84 239.453 1385.6 246.68 1397.76 259.785C1409.92 272.9 1416.58 292.022 1416.58 316.012H1418.58C1418.58 291.662 1411.82 272.004 1399.22 258.425C1386.62 244.836 1368.28 237.453 1345.4 237.453V239.453ZM1416.58 316.012C1416.58 340.11 1409.92 359.335 1397.52 372.529C1385.12 385.714 1366.88 393 1343.46 393V395C1367.31 395 1386.12 387.569 1398.98 373.899C1411.82 360.237 1418.58 340.468 1418.58 316.012H1416.58ZM1314.46 377.812H1342.17V375.812H1314.46V377.812ZM1342.17 377.812C1361.5 377.812 1375.93 371.997 1385.51 361.258C1395.08 350.538 1399.68 335.064 1399.68 316.012H1397.68C1397.68 334.772 1393.15 349.698 1384.02 359.926C1374.91 370.134 1361.09 375.812 1342.17 375.812V377.812ZM1399.68 316.012C1399.68 297.066 1395.08 281.704 1385.76 271.068C1376.42 260.41 1362.48 254.641 1344.11 254.641V256.641C1362.04 256.641 1375.38 262.258 1384.25 272.386C1393.15 282.536 1397.68 297.36 1397.68 316.012H1399.68ZM1344.11 254.641H1314.46V256.641H1344.11V254.641ZM1313.46 255.641V376.812H1315.46V255.641H1313.46Z" fill="black" fill-opacity="0.2" mask="url(#path-1-outside-1_136_409)"/>
</svg>
