<svg width="24" height="24" viewBox="0 0 24 24" fill="none" xmlns="http://www.w3.org/2000/svg">
<path d="M8.66671 22.0002C10.5067 22.0002 12 20.5068 12 18.6668V15.3335H8.66671C6.82671 15.3335 5.33337 16.8268 5.33337 18.6668C5.33337 20.5068 6.82671 22.0002 8.66671 22.0002Z" fill="#0ACF83"/>
<path d="M5.33337 11.9998C5.33337 10.1598 6.82671 8.6665 8.66671 8.6665H12V15.3332H8.66671C6.82671 15.3332 5.33337 13.8398 5.33337 11.9998Z" fill="#A259FF"/>
<path d="M5.33337 5.33333C5.33337 3.49333 6.82671 2 8.66671 2H12V8.66667H8.66671C6.82671 8.66667 5.33337 7.17333 5.33337 5.33333Z" fill="#F24E1E"/>
<path d="M12 2H15.3333C17.1733 2 18.6667 3.49333 18.6667 5.33333C18.6667 7.17333 17.1733 8.66667 15.3333 8.66667H12V2Z" fill="#FF7262"/>
<path d="M18.6667 11.9998C18.6667 13.8398 17.1733 15.3332 15.3333 15.3332C13.4933 15.3332 12 13.8398 12 11.9998C12 10.1598 13.4933 8.6665 15.3333 8.6665C17.1733 8.6665 18.6667 10.1598 18.6667 11.9998Z" fill="#1ABCFE"/>
</svg>
