<svg width="24" height="25" viewBox="0 0 24 25" fill="none" xmlns="http://www.w3.org/2000/svg">
<g clip-path="url(#clip0_144_1133)">
<path fill-rule="evenodd" clip-rule="evenodd" d="M4.13867 4.38325C4.91992 5.01362 5.20898 4.96873 6.67773 4.8692L20.4531 4.04172C20.7461 4.04172 20.502 3.75094 20.4043 3.70215L18.1094 2.04914C17.8155 1.79937 17.4724 1.61417 17.1023 1.50557C16.7321 1.39697 16.3433 1.36739 15.9609 1.41877L2.62305 2.39457C2.13672 2.44141 2.03711 2.68536 2.23242 2.88052L4.13281 4.38716L4.13867 4.38325ZM4.96484 7.59168V22.0745C4.96484 22.8551 5.35547 23.144 6.23047 23.0952L21.3711 22.2209C22.248 22.1721 22.3477 21.6354 22.3477 21.005V6.61784C22.3477 5.98747 22.1035 5.64204 21.5664 5.69473L5.74609 6.61784C5.16016 6.66663 4.96484 6.95937 4.96484 7.59364V7.59168ZM19.9121 8.37232C20.0078 8.80948 19.9121 9.24664 19.4727 9.29543L18.75 9.4379V20.1307C18.1172 20.4703 17.5332 20.6635 17.0469 20.6635C16.2656 20.6635 16.0703 20.4215 15.4844 19.6877L10.709 12.2072V19.4496L12.2188 19.7892C12.2188 19.7892 12.2188 20.6635 11.002 20.6635L7.64258 20.8587C7.54492 20.6635 7.64258 20.1795 7.98438 20.078L8.85938 19.8341V10.2634L7.64258 10.1658C7.61187 10.0369 7.60971 9.90288 7.63628 9.77306C7.66284 9.64323 7.71747 9.52078 7.79636 9.41426C7.87524 9.30774 7.97646 9.21973 8.09294 9.1564C8.20943 9.09306 8.33835 9.05592 8.4707 9.04758L12.0723 8.80558L17.0391 16.3934V9.6799L15.7734 9.53548C15.7511 9.41882 15.7543 9.2987 15.7829 9.1834C15.8114 9.06811 15.8647 8.96037 15.9389 8.86762C16.0132 8.77486 16.1067 8.6993 16.213 8.64614C16.3193 8.59298 16.4359 8.56348 16.5547 8.55968L19.916 8.36452L19.9121 8.37232ZM1.50781 1.07724L15.375 0.0565565C17.0879 -0.0898135 17.5254 0.00971807 18.5957 0.7806L23.0254 3.90316C23.7559 4.4379 24.002 4.58232 24.002 5.16585V22.2267C24.002 23.2943 23.6113 23.9266 22.2441 24.0242L6.13086 25C5.10742 25.0488 4.62109 24.9024 4.08594 24.2193L0.828125 19.9843C0.242187 19.2037 0 18.6182 0 17.943V2.77904C0 1.90472 0.390625 1.17092 1.50781 1.07724Z" fill="black"/>
</g>
<defs>
<clipPath id="clip0_144_1133">
<rect width="24" height="25" fill="white"/>
</clipPath>
</defs>
</svg>
