<svg width="24" height="9" viewBox="0 0 24 9" fill="none" xmlns="http://www.w3.org/2000/svg">
<g clip-path="url(#clip0_143_1018)">
<path d="M0 0H24V7.71445H12V9H6.6672V7.71445H0V0ZM1.3332 6.4289H3.9996V2.5711H5.3328V6.42775H6.666V1.28555H1.3332V6.4289ZM8.0004 1.28555V7.71445H10.6668V6.4289H13.3332V1.28555H8.0004ZM10.6668 2.5711H12V5.1422H10.6668V2.5711ZM14.6664 1.28555V6.42775H17.3328V2.5711H18.666V6.42775H19.9992V2.5711H21.3324V6.42775H22.6656V1.28555H14.6664Z" fill="#CB3837"/>
<path d="M1.33325 6.429H3.99965V2.57119H5.33285V6.429H6.66725V1.28564H1.33325V6.429ZM8.00045 1.28564V7.71455H10.6669V6.429H13.3333V1.28564H8.00045ZM12.0001 5.14229H10.6669V2.57119H12.0001V5.14229ZM14.6665 1.28564V6.429H17.3329V2.57119H18.6673V6.429H20.0005V2.57119H21.3337V6.429H22.6669V1.28564H14.6665Z" fill="white"/>
</g>
<defs>
<clipPath id="clip0_143_1018">
<rect width="24" height="9" fill="white"/>
</clipPath>
</defs>
</svg>
