<svg width="26" height="24" viewBox="0 0 26 24" fill="none" xmlns="http://www.w3.org/2000/svg">
<g clip-path="url(#clip0_143_1005)">
<path d="M21.3772 7.77091C21.1075 7.67469 20.828 7.58365 20.5403 7.49755C20.5875 7.29749 20.631 7.10001 20.6696 6.90589C21.3031 3.71841 20.8889 1.15055 19.4743 0.305104C18.118 -0.505568 15.8997 0.339688 13.6594 2.3604C13.444 2.55471 13.228 2.76043 13.012 2.97604C12.8681 2.83339 12.7245 2.69554 12.5812 2.56368C10.2333 0.403003 7.8799 -0.507535 6.46675 0.340359C5.11168 1.15338 4.71039 3.56741 5.28069 6.58821C5.33577 6.87999 5.40014 7.17795 5.47294 7.48091C5.13986 7.5789 4.81831 7.68337 4.51065 7.79451C1.75798 8.78918 0 10.3481 0 11.9651C0 13.6351 1.88719 15.3101 4.75431 16.3258C4.98057 16.406 5.21535 16.4818 5.4573 16.5537C5.37876 16.8814 5.31045 17.2025 5.25311 17.5156C4.70932 20.484 5.13399 22.841 6.48545 23.6489C7.88138 24.4832 10.2241 23.6256 12.5054 21.5589C12.6857 21.3955 12.8667 21.2222 13.0479 21.0406C13.2829 21.2751 13.5175 21.4971 13.7508 21.7053C15.9605 23.676 18.1429 24.4718 19.4931 23.6617C20.8877 22.825 21.3409 20.293 20.7525 17.2124C20.7076 16.9772 20.6553 16.7368 20.5965 16.4922C20.7611 16.4418 20.9226 16.3897 21.0801 16.3356C24.0607 15.3121 26 13.6574 26 11.9651C26 10.3422 24.1853 8.77282 21.3772 7.77091ZM20.7307 15.2429C20.5886 15.2917 20.4427 15.3388 20.294 15.3845C19.965 14.3049 19.5209 13.1568 18.9774 11.9707C19.496 10.8128 19.923 9.67938 20.2428 8.60672C20.5088 8.68648 20.7669 8.77062 21.0157 8.8594C23.4217 9.71785 24.8893 10.9871 24.8893 11.9651C24.8893 13.0068 23.3043 14.3591 20.7307 15.2429ZM19.6629 17.436C19.9231 18.7982 19.9602 20.0298 19.7879 20.9925C19.633 21.8576 19.3216 22.4344 18.9366 22.6654C18.1172 23.157 16.3649 22.518 14.4752 20.8326C14.2586 20.6394 14.0404 20.4331 13.8215 20.2148C14.5541 19.3843 15.2863 18.4189 16.0009 17.3467C17.2578 17.2311 18.4453 17.0422 19.5221 16.7841C19.5752 17.0059 19.6223 17.2234 19.6629 17.436ZM8.86399 22.5805C8.06344 22.8735 7.42585 22.8819 7.04043 22.6516C6.22031 22.1613 5.87937 20.2689 6.34443 17.7303C6.3977 17.4396 6.4611 17.141 6.53418 16.8357C7.59926 17.0798 8.77805 17.2555 10.038 17.3613C10.7574 18.4105 11.5107 19.3748 12.2699 20.2192C12.104 20.3852 11.9388 20.5432 11.7745 20.6921C10.7658 21.606 9.75487 22.2544 8.86399 22.5805ZM5.11353 15.2365C3.84575 14.7874 2.79876 14.2037 2.0811 13.5668C1.43624 12.9944 1.11067 12.4261 1.11067 11.9651C1.11067 10.9838 2.52215 9.73224 4.87626 8.88156C5.16189 8.77834 5.46091 8.68106 5.77121 8.58969C6.09656 9.68657 6.52335 10.8334 7.03839 11.9931C6.51668 13.17 6.08383 14.3351 5.75529 15.4448C5.53407 15.3789 5.31975 15.3095 5.11353 15.2365ZM6.37072 6.36714C5.8821 3.77899 6.20661 1.82658 7.02321 1.33666C7.89304 0.814743 9.81647 1.55889 11.8437 3.42452C11.9733 3.54377 12.1034 3.66857 12.2338 3.7977C11.4784 4.6384 10.732 5.59551 10.0189 6.63848C8.79614 6.75595 7.62564 6.94465 6.54945 7.19733C6.48179 6.91524 6.42186 6.6381 6.37072 6.36714ZM17.5859 9.23737C17.3287 8.7768 17.0646 8.32712 16.7953 7.88972C17.6249 7.99841 18.4197 8.14269 19.1661 8.31926C18.942 9.06359 18.6627 9.84184 18.3339 10.6397C18.0981 10.1756 17.8486 9.70768 17.5859 9.23737ZM13.0124 4.62041C13.5247 5.19567 14.0378 5.83793 14.5424 6.53478C14.0339 6.50988 13.5191 6.49693 13 6.49693C12.4858 6.49693 11.9748 6.5096 11.4694 6.53406C11.9746 5.84369 12.4921 5.20228 13.0124 4.62041ZM8.40957 9.24533C8.15258 9.7072 7.90776 10.1726 7.67562 10.6388C7.35217 9.84376 7.07546 9.06196 6.84943 8.30707C7.59125 8.13502 8.38231 7.99433 9.2066 7.88771C8.93355 8.32914 8.66725 8.78222 8.40957 9.24533ZM9.23034 16.1245C8.3787 16.026 7.57575 15.8926 6.83412 15.7253C7.06376 14.9569 7.34657 14.1584 7.67687 13.3463C7.90961 13.8122 8.1554 14.2777 8.41396 14.7406C8.67734 15.2122 8.95025 15.6741 9.23034 16.1245ZM13.0431 19.3909C12.5167 18.8022 11.9916 18.151 11.4788 17.4505C11.9766 17.4708 12.4842 17.4811 13 17.4811C13.5299 17.4811 14.0538 17.4688 14.5695 17.445C14.0632 18.158 13.552 18.8102 13.0431 19.3909ZM18.3445 13.3049C18.692 14.1258 18.985 14.9201 19.2176 15.6754C18.4637 15.8537 17.6498 15.9972 16.7922 16.1039C17.0622 15.6606 17.3286 15.2032 17.5904 14.7327C17.8552 14.2567 18.1067 13.7799 18.3445 13.3049ZM16.6283 14.1576C16.2218 14.888 15.8046 15.5852 15.381 16.2433C14.6095 16.3005 13.8124 16.33 13 16.33C12.1909 16.33 11.4039 16.3039 10.646 16.2529C10.2053 15.5861 9.77898 14.8869 9.37515 14.1639C8.97237 13.4428 8.60177 12.7157 8.26587 11.9927C8.60167 11.268 8.9714 10.54 9.37186 9.8203L9.37177 9.82045C9.77329 9.0988 10.1959 8.40291 10.6325 7.74031C11.4057 7.67973 12.1986 7.64812 13 7.64812C13.8049 7.64812 14.5989 7.67997 15.3719 7.74107C15.8018 8.39883 16.2215 9.09247 16.6246 9.81421C17.0323 10.5441 17.4068 11.2671 17.7455 11.9763C17.4078 12.6977 17.0342 13.4281 16.6283 14.1576ZM18.9195 1.30241C19.7902 1.8228 20.1288 3.9215 19.5818 6.67354C19.5469 6.84915 19.5076 7.02801 19.4649 7.20928C18.3862 6.95132 17.2149 6.75936 15.9885 6.64011C15.2741 5.58568 14.5338 4.62708 13.7906 3.79717C13.9904 3.59797 14.1899 3.40802 14.3886 3.22877C16.3081 1.49744 18.1021 0.813879 18.9195 1.30241ZM13 9.55874C14.2822 9.55874 15.3217 10.6361 15.3217 11.9651C15.3217 13.294 14.2822 14.3714 13 14.3714C11.7178 14.3714 10.6783 13.294 10.6783 11.9651C10.6783 10.6361 11.7178 9.55874 13 9.55874Z" fill="#00D8FF"/>
</g>
<defs>
<clipPath id="clip0_143_1005">
<rect width="26" height="24" fill="white"/>
</clipPath>
</defs>
</svg>
