<svg width="24" height="24" viewBox="0 0 24 24" fill="none" xmlns="http://www.w3.org/2000/svg">
<g clip-path="url(#clip0_143_925)">
<path d="M11.9119 23.9997C5.51701 23.9556 -0.0428531 18.6485 0.000248951 11.9061C0.0417328 5.41823 5.43302 -0.0441394 12.1041 0.000268886C18.5875 0.0433537 24.0575 5.42514 23.9995 12.0183C24.0532 18.5516 18.5565 24.0459 11.9119 23.9997ZM11.9119 23.9997C5.51701 23.9556 -0.0428531 18.6485 0.000248951 11.9061C0.0417328 5.41823 5.43302 -0.0441394 12.1041 0.000268886C18.5875 0.0433537 24.0575 5.42514 23.9995 12.0183C24.0532 18.5516 18.5565 24.0459 11.9119 23.9997Z" fill="#49A32B"/>
<path d="M16.9317 12.013C16.9008 12.5755 16.4 13.0426 15.9063 12.9611C15.904 12.9611 15.9015 12.9611 15.899 12.9611C15.3522 12.9618 14.9085 12.5275 14.9079 11.991C14.9265 11.4531 15.3811 11.0292 15.9295 11.0383C16.4763 11.0409 16.9612 11.4943 16.9317 12.013ZM8.13991 17.4639C8.34607 17.4698 8.55237 17.4655 8.7901 17.4655V18.9313C7.31249 19.1764 6.09534 18.7648 5.79666 17.5393C5.69439 17.0887 5.63153 16.6303 5.60851 16.1692C5.57678 15.681 5.63168 15.1872 5.59375 14.6999C5.48868 13.3588 5.3116 12.901 4 12.8376V11.1686C4.094 11.1471 4.18933 11.1311 4.28525 11.1206C5.00436 11.0858 5.30747 10.8695 5.46832 10.1745C5.54151 9.78402 5.5849 9.38875 5.59773 8.99189C5.6547 8.22451 5.63448 7.44468 5.76478 6.68976C5.95308 5.59806 6.64385 5.0677 7.78486 5.00833C8.10951 4.99125 8.4352 5.00573 8.80309 5.00573V6.50399C8.65168 6.51456 8.51297 6.53614 8.37514 6.53208C7.4453 6.50414 7.3972 6.81485 7.32931 7.57007C7.28696 8.04367 7.3454 8.52538 7.31249 9.00058C7.27811 9.47345 7.21362 9.94387 7.11947 10.4089C6.98533 11.0829 6.56299 11.5842 5.97773 12.0096C7.11386 12.7349 7.24313 13.8621 7.31692 15.0067C7.35661 15.6217 7.33846 16.2411 7.40207 16.8532C7.45165 17.3282 7.63995 17.4494 8.13991 17.4639ZM9.09749 11.0383H9.11505C9.65826 11.0472 10.0915 11.4863 10.0825 12.0194C10.0825 12.0369 10.0819 12.0543 10.0809 12.0717C10.0503 12.5926 9.59524 12.9905 9.06429 12.9605C9.04289 12.961 9.02164 12.9605 9.00024 12.9595C8.45955 12.9332 8.04296 12.4817 8.06982 11.9512C8.09668 11.4207 8.5568 11.012 9.09749 11.0383ZM12.4826 11.0383C13.0767 11.0338 13.4713 11.4116 13.4744 11.9878C13.4776 12.5796 13.1036 12.9582 12.5133 12.9607C11.913 12.9633 11.5178 12.5907 11.5145 12.018C11.5128 11.9887 11.5123 11.9595 11.5132 11.9302C11.5299 11.4213 11.9639 11.022 12.4826 11.0383ZM19.5701 10.3083C19.7281 10.8875 20.0358 11.091 20.6572 11.1188C20.759 11.1235 20.8604 11.1404 21 11.1556V12.8241C20.9244 12.8485 20.847 12.8667 20.7683 12.8786C19.9356 12.9294 19.556 13.2646 19.4719 14.0838C19.4182 14.6068 19.4226 15.1355 19.3857 15.6604C19.3702 16.2366 19.3168 16.8113 19.2258 17.3808C19.0133 18.4125 18.3567 18.9272 17.272 18.9901C16.9228 19.0104 16.5711 18.9933 16.1947 18.9933V17.502C16.3973 17.4896 16.5762 17.4727 16.7555 17.4685C17.4036 17.4533 17.6328 17.2483 17.6645 16.6167C17.6996 15.9229 17.715 15.2282 17.7465 14.5342C17.7924 13.5311 18.0724 12.635 19.0248 12.0094C18.4798 11.6282 18.0423 11.1665 17.9289 10.5439C17.7918 9.78924 17.7476 9.01795 17.6738 8.25274C17.6373 7.87021 17.6391 7.48435 17.601 7.10211C17.56 6.68947 17.2711 6.54671 16.8883 6.53744C16.669 6.53223 16.4488 6.53643 16.1684 6.53643V5.08015C17.9576 4.78869 19.1935 5.37276 19.3083 7.05231C19.3564 7.75757 19.3493 8.46616 19.3953 9.17142C19.4155 9.55511 19.474 9.93591 19.5701 10.3083Z" fill="white"/>
</g>
<defs>
<clipPath id="clip0_143_925">
<rect width="24" height="24" fill="white"/>
</clipPath>
</defs>
</svg>
