<svg width="24" height="24" viewBox="0 0 24 24" fill="none" xmlns="http://www.w3.org/2000/svg">
<g clip-path="url(#clip0_144_1120)">
<path fill-rule="evenodd" clip-rule="evenodd" d="M3 0H21C21.7956 0 22.5587 0.316071 23.1213 0.87868C23.6839 1.44129 24 2.20435 24 3V21C24 21.7956 23.6839 22.5587 23.1213 23.1213C22.5587 23.6839 21.7956 24 21 24H3C2.20435 24 1.44129 23.6839 0.87868 23.1213C0.316071 22.5587 0 21.7956 0 21L0 3C0 2.20435 0.316071 1.44129 0.87868 0.87868C1.44129 0.316071 2.20435 0 3 0Z" fill="#0079BF"/>
<path fill-rule="evenodd" clip-rule="evenodd" d="M15 3.125H19.4395C19.8216 3.12552 20.1879 3.27754 20.4581 3.54775C20.7283 3.81795 20.8803 4.18428 20.8809 4.56641V12.1836C20.8803 12.5655 20.7283 12.9317 20.458 13.2016C20.1877 13.4715 19.8214 13.623 19.4395 13.623H15C14.6182 13.623 14.2521 13.4714 13.9822 13.2014C13.7122 12.9315 13.5605 12.5654 13.5605 12.1836V4.56641C13.5605 4.18446 13.7121 3.81813 13.982 3.54787C14.2519 3.27761 14.6181 3.12552 15 3.125Z" fill="white"/>
<path fill-rule="evenodd" clip-rule="evenodd" d="M4.56055 3.125H9C9.38195 3.12552 9.74807 3.27761 10.018 3.54787C10.2879 3.81813 10.4395 4.18446 10.4395 4.56641V18.1797C10.4395 18.5615 10.2878 18.9276 10.0178 19.1975C9.7479 19.4675 9.38177 19.6191 9 19.6191H4.56055C4.17962 19.6176 3.81479 19.4653 3.54579 19.1956C3.2768 18.9259 3.12551 18.5606 3.125 18.1797V4.56055C3.12705 4.18045 3.27896 3.8165 3.54773 3.54773C3.8165 3.27896 4.18045 3.12705 4.56055 3.125Z" fill="white"/>
</g>
<defs>
<clipPath id="clip0_144_1120">
<rect width="24" height="24" fill="white"/>
</clipPath>
</defs>
</svg>
