<svg width="24" height="24" viewBox="0 0 24 24" fill="none" xmlns="http://www.w3.org/2000/svg">
<g clip-path="url(#clip0_143_912)">
<path d="M2.3448 0H21.6576C22.9512 0 24.0024 1.0488 24.0024 2.3448V21.6576C24.0024 22.9512 22.9536 24.0024 21.6576 24.0024H2.3448C1.0488 24 0 22.9512 0 21.6552V2.3448C0 1.0488 1.0488 0 2.3448 0Z" fill="#3178C6"/>
<path fill-rule="evenodd" clip-rule="evenodd" d="M14.8584 19.0776V21.4224C15.2376 21.6192 15.7032 21.7656 16.2168 21.864C16.7304 21.9624 17.2944 22.0104 17.8584 22.0104C18.4224 22.0104 18.936 21.96 19.452 21.852C19.968 21.744 20.3904 21.5664 20.7648 21.336C21.144 21.0864 21.468 20.7744 21.6552 20.352C21.8424 19.9296 21.9888 19.4616 21.9888 18.852C21.9888 18.4248 21.924 18.0552 21.7968 17.7264C21.6696 17.3976 21.4872 17.1168 21.2352 16.8816C20.9952 16.632 20.7192 16.4136 20.3904 16.2264C20.0616 16.0392 19.6872 15.8424 19.2648 15.6648C18.9552 15.5376 18.7032 15.4152 18.42 15.2952C18.1752 15.1728 17.9664 15.0504 17.8104 14.9304C17.6376 14.8032 17.5056 14.6736 17.412 14.5368C17.3184 14.3952 17.2704 14.2416 17.2704 14.0688C17.2704 13.9104 17.3112 13.764 17.3976 13.632C17.4816 13.5 17.5992 13.392 17.748 13.2984C17.8992 13.2048 18.0864 13.1352 18.3096 13.0824C18.5304 13.032 18.7728 13.008 19.0608 13.008C19.2576 13.008 19.464 13.0224 19.6704 13.0512C19.8864 13.08 20.1072 13.1256 20.3256 13.188C20.5464 13.248 20.7624 13.3248 20.9808 13.4184C21.1872 13.512 21.3792 13.62 21.5424 13.7424V11.5392C21.1872 11.4024 20.7912 11.2992 20.3712 11.2344C19.9488 11.1696 19.4808 11.136 18.9192 11.136C18.3576 11.136 17.8416 11.196 17.3256 11.3136C16.8096 11.4312 16.3872 11.6184 16.0128 11.8752C15.6336 12.1272 15.3576 12.4368 15.1224 12.8592C14.9016 13.2528 14.7936 13.704 14.7936 14.2656C14.7936 14.9688 14.9952 15.5784 15.4032 16.0464C15.8064 16.5624 16.4352 16.9368 17.232 17.3112C17.556 17.4432 17.8416 17.5728 18.1224 17.7C18.4032 17.8272 18.6384 17.9568 18.8256 18.0936C19.0272 18.2304 19.1856 18.3792 19.2936 18.54C19.4112 18.6984 19.4712 18.888 19.4712 19.1016C19.4712 19.2528 19.4352 19.392 19.3632 19.524C19.2912 19.656 19.1808 19.7688 19.0296 19.8624C18.8784 19.956 18.696 20.0304 18.468 20.088C18.2472 20.1384 18 20.1672 17.6712 20.1672C17.1552 20.1672 16.6392 20.0784 16.1712 19.9008C15.6552 19.7232 15.1872 19.4544 14.7648 19.104L14.8584 19.0776ZM10.9224 13.3128H13.9224V11.3904H5.53198V13.3128H8.53198V21.8904H10.9224V13.3128Z" fill="white"/>
</g>
<defs>
<clipPath id="clip0_143_912">
<rect width="24" height="24" fill="white"/>
</clipPath>
</defs>
</svg>
