<svg width="24" height="24" viewBox="0 0 24 24" fill="none" xmlns="http://www.w3.org/2000/svg">
<g clip-path="url(#clip0_144_1145)">
<path d="M23.1506 2.59133L18.2053 0.210084C17.6334 -0.0655411 16.9491 0.0507089 16.5 0.499771L0.31124 15.2598C-0.12376 15.6573 -0.12376 16.3426 0.312178 16.7391L1.63405 17.941C1.9903 18.2654 2.52749 18.2888 2.91093 17.9982L22.4062 3.20915C23.0606 2.71321 24 3.17915 24 4.0004V3.94321C24 3.36665 23.67 2.84071 23.1506 2.59133Z" fill="#0065A9"/>
<path d="M23.1506 21.4088L18.2053 23.79C17.6334 24.0656 16.9491 23.9494 16.5 23.5003L0.31124 8.74033C-0.12376 8.34376 -0.12376 7.65751 0.312178 7.26189L1.63405 6.06001C1.9903 5.73564 2.52749 5.7122 2.91093 6.00283L22.4062 20.791C23.0606 21.2869 24 20.821 24 19.9997V20.0569C24 20.6335 23.67 21.1594 23.1506 21.4088Z" fill="#007ACC"/>
<path d="M18.2062 23.7898C17.6334 24.0655 16.95 23.9492 16.5 23.4992C17.0531 24.0523 18 23.6605 18 22.8777V1.12109C18 0.338277 17.0531 -0.0535975 16.5 0.499527C16.9491 0.050465 17.6334 -0.065785 18.2062 0.208902L23.1506 2.5864C23.67 2.83671 24.0009 3.36171 24.0009 3.93828V20.0605C24.0009 20.637 23.6709 21.162 23.1506 21.4123L18.2062 23.7898Z" fill="#1F9CF0"/>
<g opacity="0.25">
<path fill-rule="evenodd" clip-rule="evenodd" d="M17.0044 23.8357C17.3822 23.9829 17.8134 23.9735 18.195 23.7898L23.1366 21.4123C23.6559 21.1629 23.9859 20.637 23.9859 20.0604V3.93917C23.9859 3.36261 23.6559 2.83761 23.1366 2.5873L18.195 0.209795C17.6944 -0.0311425 17.1084 0.02792 16.6687 0.347608C16.6059 0.393545 16.5459 0.44417 16.4897 0.50042L7.0303 9.13011L2.90999 6.00167C2.52655 5.71011 1.9903 5.73448 1.63405 6.05886L0.312178 7.26073C-0.12376 7.65729 -0.12376 8.34261 0.31124 8.74011L3.88499 11.9998L0.31124 15.2595C-0.12376 15.657 -0.12376 16.3423 0.312178 16.7389L1.63405 17.9407C1.9903 18.2651 2.52655 18.2885 2.90999 17.9979L7.0303 14.8704L16.4897 23.5001C16.6397 23.6492 16.815 23.7626 17.0044 23.8357ZM17.9887 6.55198L10.8112 11.9998L17.9887 17.4485V6.55198Z" fill="url(#paint0_linear_144_1145)"/>
</g>
</g>
<defs>
<linearGradient id="paint0_linear_144_1145" x1="11.9854" y1="0.06167" x2="11.9854" y2="23.9379" gradientUnits="userSpaceOnUse">
<stop stop-color="white"/>
<stop offset="1" stop-color="white" stop-opacity="0"/>
</linearGradient>
<clipPath id="clip0_144_1145">
<rect width="24" height="24" fill="white"/>
</clipPath>
</defs>
</svg>
