<svg width="24" height="24" viewBox="0 0 24 24" fill="none" xmlns="http://www.w3.org/2000/svg">
<g clip-path="url(#clip0_143_1068)">
<path d="M3.22286 21.7028L0 2.50275L6 0.0341797L9.80571 2.29704L13.3029 0.411323L20.6057 3.22275L16.4914 23.9999L3.22286 21.7028Z" fill="url(#paint0_linear_143_1068)"/>
<path d="M24 8.12571L20.9143 0.48L15.2915 0L6.61719 8.33143L8.94862 19.0629L13.3029 22.1486L24 15.7714L21.36 10.8686L24 8.12571Z" fill="url(#paint1_linear_143_1068)"/>
<path d="M19.2 6.99415L21.36 10.8684L24 8.12558L22.08 3.35986L19.2 6.99415Z" fill="url(#paint2_linear_143_1068)"/>
<path d="M19.4057 4.59424H4.59424V19.4057H19.4057V4.59424Z" fill="black"/>
<path d="M11.5543 16.6284H6V17.5541H11.5543V16.6284Z" fill="white"/>
<path d="M13.2686 11.7598L14.0571 10.7998C14.6057 11.2455 15.1886 11.5541 15.8743 11.5541C16.4228 11.5541 16.7314 11.3484 16.7314 10.9712V10.937C16.7314 10.5941 16.5257 10.4227 15.4971 10.1484C14.2628 9.83981 13.5086 9.49695 13.5086 8.26267V8.22838C13.5086 7.09695 14.4 6.37695 15.6343 6.37695C16.5257 6.37695 17.28 6.65124 17.8971 7.16552L17.2114 8.1941C16.6628 7.81695 16.1486 7.57695 15.6343 7.57695C15.12 7.57695 14.8457 7.81695 14.8457 8.12552V8.15981C14.8457 8.57124 15.12 8.70838 16.1486 8.98267C17.3828 9.32552 18.0686 9.77124 18.0686 10.8341V10.8684C18.0686 12.1027 17.1428 12.7884 15.84 12.7884C14.9143 12.7541 13.9886 12.4112 13.2686 11.7598Z" fill="white"/>
<path d="M12.0685 6.51416L11.1428 10.0799L10.1143 6.51416H9.08569L8.02283 10.0799L7.09712 6.51416H5.69141L7.43998 12.6513H8.57141L9.59998 9.08559L10.5943 12.6513H11.76L13.5085 6.51416H12.0685Z" fill="white"/>
</g>
<defs>
<linearGradient id="paint0_linear_143_1068" x1="8.59474" y1="0.500431" x2="14.8056" y2="22.8599" gradientUnits="userSpaceOnUse">
<stop offset="0.2849" stop-color="#00CDD7"/>
<stop offset="0.9409" stop-color="#2086D7"/>
</linearGradient>
<linearGradient id="paint1_linear_143_1068" x1="10.5326" y1="3.33747" x2="21.0395" y2="18.7443" gradientUnits="userSpaceOnUse">
<stop offset="0.1398" stop-color="#FFF045"/>
<stop offset="0.3656" stop-color="#00CDD7"/>
</linearGradient>
<linearGradient id="paint2_linear_143_1068" x1="20.9424" y1="5.24215" x2="22.322" y2="10.1292" gradientUnits="userSpaceOnUse">
<stop offset="0.2849" stop-color="#00CDD7"/>
<stop offset="0.9409" stop-color="#2086D7"/>
</linearGradient>
<clipPath id="clip0_143_1068">
<rect width="24" height="24" fill="white"/>
</clipPath>
</defs>
</svg>
